<svg xmlns="http://www.w3.org/2000/svg" class="rich-terminal" viewBox="0 0 1312 708.8"><style>@font-face{font-family:&quot;Fira Code&quot;;src:local(&quot;FiraCode-Regular&quot;),url(https://cdnjs.cloudflare.com/ajax/libs/firacode/6.2.0/woff2/FiraCode-Regular.woff2) format(&quot;woff2&quot;),url(https://cdnjs.cloudflare.com/ajax/libs/firacode/6.2.0/woff/FiraCode-Regular.woff) format(&quot;woff&quot;);font-style:normal;font-weight:400}@font-face{font-family:&quot;Fira Code&quot;;src:local(&quot;FiraCode-Bold&quot;),url(https://cdnjs.cloudflare.com/ajax/libs/firacode/6.2.0/woff2/FiraCode-Bold.woff2) format(&quot;woff2&quot;),url(https://cdnjs.cloudflare.com/ajax/libs/firacode/6.2.0/woff/FiraCode-Bold.woff) format(&quot;woff&quot;);font-style:bold;font-weight:700}.terminal-301799740-matrix{font-family:Fira Code,monospace;font-size:20px;line-height:24.4px;font-variant-east-asian:full-width}.terminal-301799740-title{font-size:18px;font-weight:700;font-family:arial}.terminal-301799740-r1{fill:#454a50}.terminal-301799740-r4{fill:#e2e3e3;font-weight:700}.terminal-301799740-r5{fill:#000}.terminal-301799740-r6{fill:#fea62b}.terminal-301799740-r7{fill:#e2e3e3}.terminal-301799740-r8{fill:#14191f}.terminal-301799740-r9{fill:#34393f}.terminal-301799740-r10{fill:#00050f;font-weight:700}</style><defs><clipPath id="terminal-301799740-clip-terminal"><rect width="1292.2" height="657.8" x="0" y="0"/></clipPath><clipPath id="terminal-301799740-line-0"><rect width="1293.2" height="24.65" x="0" y="1.5"/></clipPath><clipPath id="terminal-301799740-line-1"><rect width="1293.2" height="24.65" x="0" y="25.9"/></clipPath><clipPath id="terminal-301799740-line-2"><rect width="1293.2" height="24.65" x="0" y="50.3"/></clipPath><clipPath id="terminal-301799740-line-3"><rect width="1293.2" height="24.65" x="0" y="74.7"/></clipPath><clipPath id="terminal-301799740-line-4"><rect width="1293.2" height="24.65" x="0" y="99.1"/></clipPath><clipPath id="terminal-301799740-line-5"><rect width="1293.2" height="24.65" x="0" y="123.5"/></clipPath><clipPath id="terminal-301799740-line-6"><rect width="1293.2" height="24.65" x="0" y="147.9"/></clipPath><clipPath id="terminal-301799740-line-7"><rect width="1293.2" height="24.65" x="0" y="172.3"/></clipPath><clipPath id="terminal-301799740-line-8"><rect width="1293.2" height="24.65" x="0" y="196.7"/></clipPath><clipPath id="terminal-301799740-line-9"><rect width="1293.2" height="24.65" x="0" y="221.1"/></clipPath><clipPath id="terminal-301799740-line-10"><rect width="1293.2" height="24.65" x="0" y="245.5"/></clipPath><clipPath id="terminal-301799740-line-11"><rect width="1293.2" height="24.65" x="0" y="269.9"/></clipPath><clipPath id="terminal-301799740-line-12"><rect width="1293.2" height="24.65" x="0" y="294.3"/></clipPath><clipPath id="terminal-301799740-line-13"><rect width="1293.2" height="24.65" x="0" y="318.7"/></clipPath><clipPath id="terminal-301799740-line-14"><rect width="1293.2" height="24.65" x="0" y="343.1"/></clipPath><clipPath id="terminal-301799740-line-15"><rect width="1293.2" height="24.65" x="0" y="367.5"/></clipPath><clipPath id="terminal-301799740-line-16"><rect width="1293.2" height="24.65" x="0" y="391.9"/></clipPath><clipPath id="terminal-301799740-line-17"><rect width="1293.2" height="24.65" x="0" y="416.3"/></clipPath><clipPath id="terminal-301799740-line-18"><rect width="1293.2" height="24.65" x="0" y="440.7"/></clipPath><clipPath id="terminal-301799740-line-19"><rect width="1293.2" height="24.65" x="0" y="465.1"/></clipPath><clipPath id="terminal-301799740-line-20"><rect width="1293.2" height="24.65" x="0" y="489.5"/></clipPath><clipPath id="terminal-301799740-line-21"><rect width="1293.2" height="24.65" x="0" y="513.9"/></clipPath><clipPath id="terminal-301799740-line-22"><rect width="1293.2" height="24.65" x="0" y="538.3"/></clipPath><clipPath id="terminal-301799740-line-23"><rect width="1293.2" height="24.65" x="0" y="562.7"/></clipPath><clipPath id="terminal-301799740-line-24"><rect width="1293.2" height="24.65" x="0" y="587.1"/></clipPath><clipPath id="terminal-301799740-line-25"><rect width="1293.2" height="24.65" x="0" y="611.5"/></clipPath></defs><rect width="1310" height="706.8" x="1" y="1" fill="#292929" stroke="rgba(255,255,255,0.35)" stroke-width="1" rx="8"/><text x="655" y="27" fill="#c5c8c6" class="terminal-301799740-title" text-anchor="middle">BorderApp</text><g transform="translate(26,22)"><circle cx="0" cy="0" r="7" fill="#ff5f57"/><circle cx="22" cy="0" r="7" fill="#febc2e"/><circle cx="44" cy="0" r="7" fill="#28c840"/></g><g clip-path="url(#terminal-301799740-clip-terminal)" transform="translate(9, 41)"><rect width="268.4" height="24.65" x="0" y="1.5" fill="#24292f" shape-rendering="crispEdges"/><rect width="24.4" height="24.65" x="268.4" y="1.5" fill="#23568b" shape-rendering="crispEdges"/><rect width="1000.4" height="24.65" x="292.8" y="1.5" fill="#1e1e1e" shape-rendering="crispEdges"/><rect width="85.4" height="24.65" x="0" y="25.9" fill="#24292f" shape-rendering="crispEdges"/><rect width="12.2" height="24.65" x="85.4" y="25.9" fill="#24292f" shape-rendering="crispEdges"/><rect width="61" height="24.65" x="97.6" y="25.9" fill="#24292f" shape-rendering="crispEdges"/><rect width="12.2" height="24.65" x="158.6" y="25.9" fill="#24292f" shape-rendering="crispEdges"/><rect width="97.6" height="24.65" x="170.8" y="25.9" fill="#24292f" shape-rendering="crispEdges"/><rect width="24.4" height="24.65" x="268.4" y="25.9" fill="#23568b" shape-rendering="crispEdges"/><rect width="1000.4" height="24.65" x="292.8" y="25.9" fill="#1e1e1e" shape-rendering="crispEdges"/><rect width="268.4" height="24.65" x="0" y="50.3" fill="#24292f" shape-rendering="crispEdges"/><rect width="24.4" height="24.65" x="268.4" y="50.3" fill="#23568b" shape-rendering="crispEdges"/><rect width="1000.4" height="24.65" x="292.8" y="50.3" fill="#1e1e1e" shape-rendering="crispEdges"/><rect width="268.4" height="24.65" x="0" y="74.7" fill="#24292f" shape-rendering="crispEdges"/><rect width="24.4" height="24.65" x="268.4" y="74.7" fill="#23568b" shape-rendering="crispEdges"/><rect width="1000.4" height="24.65" x="292.8" y="74.7" fill="#1e1e1e" shape-rendering="crispEdges"/><rect width="97.6" height="24.65" x="0" y="99.1" fill="#24292f" shape-rendering="crispEdges"/><rect width="12.2" height="24.65" x="97.6" y="99.1" fill="#24292f" shape-rendering="crispEdges"/><rect width="48.8" height="24.65" x="109.8" y="99.1" fill="#24292f" shape-rendering="crispEdges"/><rect width="12.2" height="24.65" x="158.6" y="99.1" fill="#24292f" shape-rendering="crispEdges"/><rect width="97.6" height="24.65" x="170.8" y="99.1" fill="#24292f" shape-rendering="crispEdges"/><rect width="24.4" height="24.65" x="268.4" y="99.1" fill="#23568b" shape-rendering="crispEdges"/><rect width="1000.4" height="24.65" x="292.8" y="99.1" fill="#1e1e1e" shape-rendering="crispEdges"/><rect width="268.4" height="24.65" x="0" y="123.5" fill="#24292f" shape-rendering="crispEdges"/><rect width="24.4" height="24.65" x="268.4" y="123.5" fill="#23568b" shape-rendering="crispEdges"/><rect width="1000.4" height="24.65" x="292.8" y="123.5" fill="#1e1e1e" shape-rendering="crispEdges"/><rect width="268.4" height="24.65" x="0" y="147.9" fill="#24292f" shape-rendering="crispEdges"/><rect width="24.4" height="24.65" x="268.4" y="147.9" fill="#23568b" shape-rendering="crispEdges"/><rect width="48.8" height="24.65" x="292.8" y="147.9" fill="#1e1e1e" shape-rendering="crispEdges"/><rect width="12.2" height="24.65" x="341.6" y="147.9" fill="#24292f" shape-rendering="crispEdges"/><rect width="390.4" height="24.65" x="353.8" y="147.9" fill="#24292f" shape-rendering="crispEdges"/><rect width="12.2" height="24.65" x="744.2" y="147.9" fill="#24292f" shape-rendering="crispEdges"/><rect width="73.2" height="24.65" x="756.4" y="147.9" fill="#24292f" shape-rendering="crispEdges"/><rect width="12.2" height="24.65" x="829.6" y="147.9" fill="#24292f" shape-rendering="crispEdges"/><rect width="390.4" height="24.65" x="841.8" y="147.9" fill="#24292f" shape-rendering="crispEdges"/><rect width="12.2" height="24.65" x="1232.2" y="147.9" fill="#24292f" shape-rendering="crispEdges"/><rect width="48.8" height="24.65" x="1244.4" y="147.9" fill="#1e1e1e" shape-rendering="crispEdges"/><rect width="85.4" height="24.65" x="0" y="172.3" fill="#24292f" shape-rendering="crispEdges"/><rect width="12.2" height="24.65" x="85.4" y="172.3" fill="#24292f" shape-rendering="crispEdges"/><rect width="73.2" height="24.65" x="97.6" y="172.3" fill="#24292f" shape-rendering="crispEdges"/><rect width="12.2" height="24.65" x="170.8" y="172.3" fill="#24292f" shape-rendering="crispEdges"/><rect width="85.4" height="24.65" x="183" y="172.3" fill="#24292f" shape-rendering="crispEdges"/><rect width="24.4" height="24.65" x="268.4" y="172.3" fill="#23568b" shape-rendering="crispEdges"/><rect width="48.8" height="24.65" x="292.8" y="172.3" fill="#1e1e1e" shape-rendering="crispEdges"/><rect width="12.2" height="24.65" x="341.6" y="172.3" fill="#24292f" shape-rendering="crispEdges"/><rect width="878.4" height="24.65" x="353.8" y="172.3" fill="#24292f" shape-rendering="crispEdges"/><rect width="12.2" height="24.65" x="1232.2" y="172.3" fill="#24292f" shape-rendering="crispEdges"/><rect width="48.8" height="24.65" x="1244.4" y="172.3" fill="#1e1e1e" shape-rendering="crispEdges"/><rect width="268.4" height="24.65" x="0" y="196.7" fill="#24292f" shape-rendering="crispEdges"/><rect width="24.4" height="24.65" x="268.4" y="196.7" fill="#23568b" shape-rendering="crispEdges"/><rect width="48.8" height="24.65" x="292.8" y="196.7" fill="#1e1e1e" shape-rendering="crispEdges"/><rect width="12.2" height="24.65" x="341.6" y="196.7" fill="#24292f" shape-rendering="crispEdges"/><rect width="878.4" height="24.65" x="353.8" y="196.7" fill="#24292f" shape-rendering="crispEdges"/><rect width="12.2" height="24.65" x="1232.2" y="196.7" fill="#24292f" shape-rendering="crispEdges"/><rect width="48.8" height="24.65" x="1244.4" y="196.7" fill="#1e1e1e" shape-rendering="crispEdges"/><rect width="268.4" height="24.65" x="0" y="221.1" fill="#24292f" shape-rendering="crispEdges"/><rect width="24.4" height="24.65" x="268.4" y="221.1" fill="#23568b" shape-rendering="crispEdges"/><rect width="48.8" height="24.65" x="292.8" y="221.1" fill="#1e1e1e" shape-rendering="crispEdges"/><rect width="12.2" height="24.65" x="341.6" y="221.1" fill="#24292f" shape-rendering="crispEdges"/><rect width="48.8" height="24.65" x="353.8" y="221.1" fill="#24292f" shape-rendering="crispEdges"/><rect width="195.2" height="24.65" x="402.6" y="221.1" fill="#24292f" shape-rendering="crispEdges"/><rect width="585.6" height="24.65" x="597.8" y="221.1" fill="#24292f" shape-rendering="crispEdges"/><rect width="48.8" height="24.65" x="1183.4" y="221.1" fill="#24292f" shape-rendering="crispEdges"/><rect width="12.2" height="24.65" x="1232.2" y="221.1" fill="#24292f" shape-rendering="crispEdges"/><rect width="48.8" height="24.65" x="1244.4" y="221.1" fill="#1e1e1e" shape-rendering="crispEdges"/><rect width="85.4" height="24.65" x="0" y="245.5" fill="#24292f" shape-rendering="crispEdges"/><rect width="12.2" height="24.65" x="85.4" y="245.5" fill="#24292f" shape-rendering="crispEdges"/><rect width="61" height="24.65" x="97.6" y="245.5" fill="#24292f" shape-rendering="crispEdges"/><rect width="12.2" height="24.65" x="158.6" y="245.5" fill="#24292f" shape-rendering="crispEdges"/><rect width="97.6" height="24.65" x="170.8" y="245.5" fill="#24292f" shape-rendering="crispEdges"/><rect width="24.4" height="24.65" x="268.4" y="245.5" fill="#23568b" shape-rendering="crispEdges"/><rect width="48.8" height="24.65" x="292.8" y="245.5" fill="#1e1e1e" shape-rendering="crispEdges"/><rect width="12.2" height="24.65" x="341.6" y="245.5" fill="#24292f" shape-rendering="crispEdges"/><rect width="48.8" height="24.65" x="353.8" y="245.5" fill="#24292f" shape-rendering="crispEdges"/><rect width="292.8" height="24.65" x="402.6" y="245.5" fill="#24292f" shape-rendering="crispEdges"/><rect width="488" height="24.65" x="695.4" y="245.5" fill="#24292f" shape-rendering="crispEdges"/><rect width="48.8" height="24.65" x="1183.4" y="245.5" fill="#24292f" shape-rendering="crispEdges"/><rect width="12.2" height="24.65" x="1232.2" y="245.5" fill="#24292f" shape-rendering="crispEdges"/><rect width="48.8" height="24.65" x="1244.4" y="245.5" fill="#1e1e1e" shape-rendering="crispEdges"/><rect width="268.4" height="24.65" x="0" y="269.9" fill="#24292f" shape-rendering="crispEdges"/><rect width="24.4" height="24.65" x="268.4" y="269.9" fill="#23568b" shape-rendering="crispEdges"/><rect width="48.8" height="24.65" x="292.8" y="269.9" fill="#1e1e1e" shape-rendering="crispEdges"/><rect width="12.2" height="24.65" x="341.6" y="269.9" fill="#24292f" shape-rendering="crispEdges"/><rect width="48.8" height="24.65" x="353.8" y="269.9" fill="#24292f" shape-rendering="crispEdges"/><rect width="683.2" height="24.65" x="402.6" y="269.9" fill="#24292f" shape-rendering="crispEdges"/><rect width="97.6" height="24.65" x="1085.8" y="269.9" fill="#24292f" shape-rendering="crispEdges"/><rect width="48.8" height="24.65" x="1183.4" y="269.9" fill="#24292f" shape-rendering="crispEdges"/><rect width="12.2" height="24.65" x="1232.2" y="269.9" fill="#24292f" shape-rendering="crispEdges"/><rect width="48.8" height="24.65" x="1244.4" y="269.9" fill="#1e1e1e" shape-rendering="crispEdges"/><rect width="268.4" height="24.65" x="0" y="294.3" fill="#24292f" shape-rendering="crispEdges"/><rect width="24.4" height="24.65" x="268.4" y="294.3" fill="#23568b" shape-rendering="crispEdges"/><rect width="48.8" height="24.65" x="292.8" y="294.3" fill="#1e1e1e" shape-rendering="crispEdges"/><rect width="12.2" height="24.65" x="341.6" y="294.3" fill="#24292f" shape-rendering="crispEdges"/><rect width="48.8" height="24.65" x="353.8" y="294.3" fill="#24292f" shape-rendering="crispEdges"/><rect width="244" height="24.65" x="402.6" y="294.3" fill="#24292f" shape-rendering="crispEdges"/><rect width="536.8" height="24.65" x="646.6" y="294.3" fill="#24292f" shape-rendering="crispEdges"/><rect width="48.8" height="24.65" x="1183.4" y="294.3" fill="#24292f" shape-rendering="crispEdges"/><rect width="12.2" height="24.65" x="1232.2" y="294.3" fill="#24292f" shape-rendering="crispEdges"/><rect width="48.8" height="24.65" x="1244.4" y="294.3" fill="#1e1e1e" shape-rendering="crispEdges"/><rect width="85.4" height="24.65" x="0" y="318.7" fill="#24292f" shape-rendering="crispEdges"/><rect width="12.2" height="24.65" x="85.4" y="318.7" fill="#24292f" shape-rendering="crispEdges"/><rect width="61" height="24.65" x="97.6" y="318.7" fill="#24292f" shape-rendering="crispEdges"/><rect width="12.2" height="24.65" x="158.6" y="318.7" fill="#24292f" shape-rendering="crispEdges"/><rect width="97.6" height="24.65" x="170.8" y="318.7" fill="#24292f" shape-rendering="crispEdges"/><rect width="24.4" height="24.65" x="268.4" y="318.7" fill="#23568b" shape-rendering="crispEdges"/><rect width="48.8" height="24.65" x="292.8" y="318.7" fill="#1e1e1e" shape-rendering="crispEdges"/><rect width="12.2" height="24.65" x="341.6" y="318.7" fill="#24292f" shape-rendering="crispEdges"/><rect width="48.8" height="24.65" x="353.8" y="318.7" fill="#24292f" shape-rendering="crispEdges"/><rect width="585.6" height="24.65" x="402.6" y="318.7" fill="#24292f" shape-rendering="crispEdges"/><rect width="195.2" height="24.65" x="988.2" y="318.7" fill="#24292f" shape-rendering="crispEdges"/><rect width="48.8" height="24.65" x="1183.4" y="318.7" fill="#24292f" shape-rendering="crispEdges"/><rect width="12.2" height="24.65" x="1232.2" y="318.7" fill="#24292f" shape-rendering="crispEdges"/><rect width="48.8" height="24.65" x="1244.4" y="318.7" fill="#1e1e1e" shape-rendering="crispEdges"/><rect width="268.4" height="24.65" x="0" y="343.1" fill="#24292f" shape-rendering="crispEdges"/><rect width="24.4" height="24.65" x="268.4" y="343.1" fill="#23568b" shape-rendering="crispEdges"/><rect width="48.8" height="24.65" x="292.8" y="343.1" fill="#1e1e1e" shape-rendering="crispEdges"/><rect width="12.2" height="24.65" x="341.6" y="343.1" fill="#24292f" shape-rendering="crispEdges"/><rect width="48.8" height="24.65" x="353.8" y="343.1" fill="#24292f" shape-rendering="crispEdges"/><rect width="780.8" height="24.65" x="402.6" y="343.1" fill="#24292f" shape-rendering="crispEdges"/><rect width="48.8" height="24.65" x="1183.4" y="343.1" fill="#24292f" shape-rendering="crispEdges"/><rect width="12.2" height="24.65" x="1232.2" y="343.1" fill="#24292f" shape-rendering="crispEdges"/><rect width="48.8" height="24.65" x="1244.4" y="343.1" fill="#1e1e1e" shape-rendering="crispEdges"/><rect width="268.4" height="24.65" x="0" y="367.5" fill="#24292f" shape-rendering="crispEdges"/><rect width="24.4" height="24.65" x="268.4" y="367.5" fill="#23568b" shape-rendering="crispEdges"/><rect width="48.8" height="24.65" x="292.8" y="367.5" fill="#1e1e1e" shape-rendering="crispEdges"/><rect width="12.2" height="24.65" x="341.6" y="367.5" fill="#24292f" shape-rendering="crispEdges"/><rect width="48.8" height="24.65" x="353.8" y="367.5" fill="#24292f" shape-rendering="crispEdges"/><rect width="61" height="24.65" x="402.6" y="367.5" fill="#24292f" shape-rendering="crispEdges"/><rect width="719.8" height="24.65" x="463.6" y="367.5" fill="#24292f" shape-rendering="crispEdges"/><rect width="48.8" height="24.65" x="1183.4" y="367.5" fill="#24292f" shape-rendering="crispEdges"/><rect width="12.2" height="24.65" x="1232.2" y="367.5" fill="#24292f" shape-rendering="crispEdges"/><rect width="48.8" height="24.65" x="1244.4" y="367.5" fill="#1e1e1e" shape-rendering="crispEdges"/><rect width="85.4" height="24.65" x="0" y="391.9" fill="#24292f" shape-rendering="crispEdges"/><rect width="12.2" height="24.65" x="85.4" y="391.9" fill="#24292f" shape-rendering="crispEdges"/><rect width="61" height="24.65" x="97.6" y="391.9" fill="#24292f" shape-rendering="crispEdges"/><rect width="12.2" height="24.65" x="158.6" y="391.9" fill="#24292f" shape-rendering="crispEdges"/><rect width="97.6" height="24.65" x="170.8" y="391.9" fill="#24292f" shape-rendering="crispEdges"/><rect width="24.4" height="24.65" x="268.4" y="391.9" fill="#23568b" shape-rendering="crispEdges"/><rect width="48.8" height="24.65" x="292.8" y="391.9" fill="#1e1e1e" shape-rendering="crispEdges"/><rect width="12.2" height="24.65" x="341.6" y="391.9" fill="#24292f" shape-rendering="crispEdges"/><rect width="48.8" height="24.65" x="353.8" y="391.9" fill="#24292f" shape-rendering="crispEdges"/><rect width="719.8" height="24.65" x="402.6" y="391.9" fill="#24292f" shape-rendering="crispEdges"/><rect width="61" height="24.65" x="1122.4" y="391.9" fill="#24292f" shape-rendering="crispEdges"/><rect width="48.8" height="24.65" x="1183.4" y="391.9" fill="#24292f" shape-rendering="crispEdges"/><rect width="12.2" height="24.65" x="1232.2" y="391.9" fill="#24292f" shape-rendering="crispEdges"/><rect width="48.8" height="24.65" x="1244.4" y="391.9" fill="#1e1e1e" shape-rendering="crispEdges"/><rect width="268.4" height="24.65" x="0" y="416.3" fill="#24292f" shape-rendering="crispEdges"/><rect width="24.4" height="24.65" x="268.4" y="416.3" fill="#14191f" shape-rendering="crispEdges"/><rect width="48.8" height="24.65" x="292.8" y="416.3" fill="#1e1e1e" shape-rendering="crispEdges"/><rect width="12.2" height="24.65" x="341.6" y="416.3" fill="#24292f" shape-rendering="crispEdges"/><rect width="48.8" height="24.65" x="353.8" y="416.3" fill="#24292f" shape-rendering="crispEdges"/><rect width="85.4" height="24.65" x="402.6" y="416.3" fill="#24292f" shape-rendering="crispEdges"/><rect width="695.4" height="24.65" x="488" y="416.3" fill="#24292f" shape-rendering="crispEdges"/><rect width="48.8" height="24.65" x="1183.4" y="416.3" fill="#24292f" shape-rendering="crispEdges"/><rect width="12.2" height="24.65" x="1232.2" y="416.3" fill="#24292f" shape-rendering="crispEdges"/><rect width="48.8" height="24.65" x="1244.4" y="416.3" fill="#1e1e1e" shape-rendering="crispEdges"/><rect width="268.4" height="24.65" x="0" y="440.7" fill="#00050f" shape-rendering="crispEdges"/><rect width="24.4" height="24.65" x="268.4" y="440.7" fill="#14191f" shape-rendering="crispEdges"/><rect width="48.8" height="24.65" x="292.8" y="440.7" fill="#1e1e1e" shape-rendering="crispEdges"/><rect width="12.2" height="24.65" x="341.6" y="440.7" fill="#24292f" shape-rendering="crispEdges"/><rect width="878.4" height="24.65" x="353.8" y="440.7" fill="#24292f" shape-rendering="crispEdges"/><rect width="12.2" height="24.65" x="1232.2" y="440.7" fill="#24292f" shape-rendering="crispEdges"/><rect width="48.8" height="24.65" x="1244.4" y="440.7" fill="#1e1e1e" shape-rendering="crispEdges"/><rect width="85.4" height="24.65" x="0" y="465.1" fill="#00050f" shape-rendering="crispEdges"/><rect width="12.2" height="24.65" x="85.4" y="465.1" fill="#dddedf" shape-rendering="crispEdges"/><rect width="73.2" height="24.65" x="97.6" y="465.1" fill="#dddedf" shape-rendering="crispEdges"/><rect width="12.2" height="24.65" x="170.8" y="465.1" fill="#dddedf" shape-rendering="crispEdges"/><rect width="85.4" height="24.65" x="183" y="465.1" fill="#00050f" shape-rendering="crispEdges"/><rect width="24.4" height="24.65" x="268.4" y="465.1" fill="#14191f" shape-rendering="crispEdges"/><rect width="48.8" height="24.65" x="292.8" y="465.1" fill="#1e1e1e" shape-rendering="crispEdges"/><rect width="12.2" height="24.65" x="341.6" y="465.1" fill="#24292f" shape-rendering="crispEdges"/><rect width="878.4" height="24.65" x="353.8" y="465.1" fill="#24292f" shape-rendering="crispEdges"/><rect width="12.2" height="24.65" x="1232.2" y="465.1" fill="#24292f" shape-rendering="crispEdges"/><rect width="48.8" height="24.65" x="1244.4" y="465.1" fill="#1e1e1e" shape-rendering="crispEdges"/><rect width="268.4" height="24.65" x="0" y="489.5" fill="#00050f" shape-rendering="crispEdges"/><rect width="24.4" height="24.65" x="268.4" y="489.5" fill="#14191f" shape-rendering="crispEdges"/><rect width="48.8" height="24.65" x="292.8" y="489.5" fill="#1e1e1e" shape-rendering="crispEdges"/><rect width="12.2" height="24.65" x="341.6" y="489.5" fill="#24292f" shape-rendering="crispEdges"/><rect width="878.4" height="24.65" x="353.8" y="489.5" fill="#24292f" shape-rendering="crispEdges"/><rect width="12.2" height="24.65" x="1232.2" y="489.5" fill="#24292f" shape-rendering="crispEdges"/><rect width="48.8" height="24.65" x="1244.4" y="489.5" fill="#1e1e1e" shape-rendering="crispEdges"/><rect width="268.4" height="24.65" x="0" y="513.9" fill="#24292f" shape-rendering="crispEdges"/><rect width="24.4" height="24.65" x="268.4" y="513.9" fill="#14191f" shape-rendering="crispEdges"/><rect width="1000.4" height="24.65" x="292.8" y="513.9" fill="#1e1e1e" shape-rendering="crispEdges"/><rect width="85.4" height="24.65" x="0" y="538.3" fill="#24292f" shape-rendering="crispEdges"/><rect width="12.2" height="24.65" x="85.4" y="538.3" fill="#24292f" shape-rendering="crispEdges"/><rect width="73.2" height="24.65" x="97.6" y="538.3" fill="#24292f" shape-rendering="crispEdges"/><rect width="12.2" height="24.65" x="170.8" y="538.3" fill="#24292f" shape-rendering="crispEdges"/><rect width="85.4" height="24.65" x="183" y="538.3" fill="#24292f" shape-rendering="crispEdges"/><rect width="24.4" height="24.65" x="268.4" y="538.3" fill="#14191f" shape-rendering="crispEdges"/><rect width="1000.4" height="24.65" x="292.8" y="538.3" fill="#1e1e1e" shape-rendering="crispEdges"/><rect width="268.4" height="24.65" x="0" y="562.7" fill="#24292f" shape-rendering="crispEdges"/><rect width="24.4" height="24.65" x="268.4" y="562.7" fill="#14191f" shape-rendering="crispEdges"/><rect width="1000.4" height="24.65" x="292.8" y="562.7" fill="#1e1e1e" shape-rendering="crispEdges"/><rect width="268.4" height="24.65" x="0" y="587.1" fill="#24292f" shape-rendering="crispEdges"/><rect width="24.4" height="24.65" x="268.4" y="587.1" fill="#14191f" shape-rendering="crispEdges"/><rect width="1000.4" height="24.65" x="292.8" y="587.1" fill="#1e1e1e" shape-rendering="crispEdges"/><rect width="85.4" height="24.65" x="0" y="611.5" fill="#24292f" shape-rendering="crispEdges"/><rect width="12.2" height="24.65" x="85.4" y="611.5" fill="#24292f" shape-rendering="crispEdges"/><rect width="61" height="24.65" x="97.6" y="611.5" fill="#24292f" shape-rendering="crispEdges"/><rect width="12.2" height="24.65" x="158.6" y="611.5" fill="#24292f" shape-rendering="crispEdges"/><rect width="97.6" height="24.65" x="170.8" y="611.5" fill="#24292f" shape-rendering="crispEdges"/><rect width="24.4" height="24.65" x="268.4" y="611.5" fill="#14191f" shape-rendering="crispEdges"/><rect width="1000.4" height="24.65" x="292.8" y="611.5" fill="#1e1e1e" shape-rendering="crispEdges"/><rect width="268.4" height="24.65" x="0" y="635.9" fill="#24292f" shape-rendering="crispEdges"/><rect width="24.4" height="24.65" x="268.4" y="635.9" fill="#14191f" shape-rendering="crispEdges"/><rect width="1000.4" height="24.65" x="292.8" y="635.9" fill="#1e1e1e" shape-rendering="crispEdges"/><g class="terminal-301799740-matrix"><text x="0" y="20" class="terminal-301799740-r1" clip-path="url(#terminal-301799740-line-0)" textLength="268.4">▔▔▔▔▔▔▔▔▔▔▔▔▔▔▔▔▔▔▔▔▔▔</text><text x="97.6" y="44.4" class="terminal-301799740-r4" clip-path="url(#terminal-301799740-line-1)" textLength="61">ascii</text><text x="0" y="68.8" class="terminal-301799740-r5" clip-path="url(#terminal-301799740-line-2)" textLength="268.4">▁▁▁▁▁▁▁▁▁▁▁▁▁▁▁▁▁▁▁▁▁▁</text><text x="0" y="93.2" class="terminal-301799740-r1" clip-path="url(#terminal-301799740-line-3)" textLength="268.4">▔▔▔▔▔▔▔▔▔▔▔▔▔▔▔▔▔▔▔▔▔▔</text><text x="109.8" y="117.6" class="terminal-301799740-r4" clip-path="url(#terminal-301799740-line-4)" textLength="48.8">none</text><text x="0" y="142" class="terminal-301799740-r5" clip-path="url(#terminal-301799740-line-5)" textLength="268.4">▁▁▁▁▁▁▁▁▁▁▁▁▁▁▁▁▁▁▁▁▁▁</text><text x="0" y="166.4" class="terminal-301799740-r1" clip-path="url(#terminal-301799740-line-6)" textLength="268.4">▔▔▔▔▔▔▔▔▔▔▔▔▔▔▔▔▔▔▔▔▔▔</text><text x="341.6" y="166.4" class="terminal-301799740-r6" clip-path="url(#terminal-301799740-line-6)" textLength="12.2">╔</text><text x="353.8" y="166.4" class="terminal-301799740-r6" clip-path="url(#terminal-301799740-line-6)" textLength="390.4">════════════════════════════════</text><text x="756.4" y="166.4" class="terminal-301799740-r6" clip-path="url(#terminal-301799740-line-6)" textLength="73.2">double</text><text x="841.8" y="166.4" class="terminal-301799740-r6" clip-path="url(#terminal-301799740-line-6)" textLength="390.4">════════════════════════════════</text><text x="1232.2" y="166.4" class="terminal-301799740-r6" clip-path="url(#terminal-301799740-line-6)" textLength="12.2">╗</text><text x="97.6" y="190.8" class="terminal-301799740-r4" clip-path="url(#terminal-301799740-line-7)" textLength="73.2">hidden</text><text x="341.6" y="190.8" class="terminal-301799740-r6" clip-path="url(#terminal-301799740-line-7)" textLength="12.2">║</text><text x="1232.2" y="190.8" class="terminal-301799740-r6" clip-path="url(#terminal-301799740-line-7)" textLength="12.2">║</text><text x="0" y="215.2" class="terminal-301799740-r5" clip-path="url(#terminal-301799740-line-8)" textLength="268.4">▁▁▁▁▁▁▁▁▁▁▁▁▁▁▁▁▁▁▁▁▁▁</text><text x="341.6" y="215.2" class="terminal-301799740-r6" clip-path="url(#terminal-301799740-line-8)" textLength="12.2">║</text><text x="1232.2" y="215.2" class="terminal-301799740-r6" clip-path="url(#terminal-301799740-line-8)" textLength="12.2">║</text><text x="0" y="239.6" class="terminal-301799740-r1" clip-path="url(#terminal-301799740-line-9)" textLength="268.4">▔▔▔▔▔▔▔▔▔▔▔▔▔▔▔▔▔▔▔▔▔▔</text><text x="341.6" y="239.6" class="terminal-301799740-r6" clip-path="url(#terminal-301799740-line-9)" textLength="12.2">║</text><text x="402.6" y="239.6" class="terminal-301799740-r7" clip-path="url(#terminal-301799740-line-9)" textLength="195.2">I must not fear.</text><text x="1232.2" y="239.6" class="terminal-301799740-r6" clip-path="url(#terminal-301799740-line-9)" textLength="12.2">║</text><text x="97.6" y="264" class="terminal-301799740-r4" clip-path="url(#terminal-301799740-line-10)" textLength="61">blank</text><text x="341.6" y="264" class="terminal-301799740-r6" clip-path="url(#terminal-301799740-line-10)" textLength="12.2">║</text><text x="402.6" y="264" class="terminal-301799740-r7" clip-path="url(#terminal-301799740-line-10)" textLength="292.8">Fear is the mind-killer.</text><text x="1232.2" y="264" class="terminal-301799740-r6" clip-path="url(#terminal-301799740-line-10)" textLength="12.2">║</text><text x="0" y="288.4" class="terminal-301799740-r5" clip-path="url(#terminal-301799740-line-11)" textLength="268.4">▁▁▁▁▁▁▁▁▁▁▁▁▁▁▁▁▁▁▁▁▁▁</text><text x="341.6" y="288.4" class="terminal-301799740-r6" clip-path="url(#terminal-301799740-line-11)" textLength="12.2">║</text><text x="402.6" y="288.4" class="terminal-301799740-r7" clip-path="url(#terminal-301799740-line-11)" textLength="683.2">Fear is the little-death that brings total obliteration.</text><text x="1232.2" y="288.4" class="terminal-301799740-r6" clip-path="url(#terminal-301799740-line-11)" textLength="12.2">║</text><text x="0" y="312.8" class="terminal-301799740-r1" clip-path="url(#terminal-301799740-line-12)" textLength="268.4">▔▔▔▔▔▔▔▔▔▔▔▔▔▔▔▔▔▔▔▔▔▔</text><text x="341.6" y="312.8" class="terminal-301799740-r6" clip-path="url(#terminal-301799740-line-12)" textLength="12.2">║</text><text x="402.6" y="312.8" class="terminal-301799740-r7" clip-path="url(#terminal-301799740-line-12)" textLength="244">I will face my fear.</text><text x="1232.2" y="312.8" class="terminal-301799740-r6" clip-path="url(#terminal-301799740-line-12)" textLength="12.2">║</text><text x="97.6" y="337.2" class="terminal-301799740-r4" clip-path="url(#terminal-301799740-line-13)" textLength="61">round</text><text x="341.6" y="337.2" class="terminal-301799740-r6" clip-path="url(#terminal-301799740-line-13)" textLength="12.2">║</text><text x="402.6" y="337.2" class="terminal-301799740-r7" clip-path="url(#terminal-301799740-line-13)" textLength="585.6">I will permit it to pass over me and through me.</text><text x="1232.2" y="337.2" class="terminal-301799740-r6" clip-path="url(#terminal-301799740-line-13)" textLength="12.2">║</text><text x="0" y="361.6" class="terminal-301799740-r5" clip-path="url(#terminal-301799740-line-14)" textLength="268.4">▁▁▁▁▁▁▁▁▁▁▁▁▁▁▁▁▁▁▁▁▁▁</text><text x="341.6" y="361.6" class="terminal-301799740-r6" clip-path="url(#terminal-301799740-line-14)" textLength="12.2">║</text><text x="402.6" y="361.6" class="terminal-301799740-r7" clip-path="url(#terminal-301799740-line-14)" textLength="780.8">And when it has gone past, I will turn the inner eye to see its</text><text x="1232.2" y="361.6" class="terminal-301799740-r6" clip-path="url(#terminal-301799740-line-14)" textLength="12.2">║</text><text x="0" y="386" class="terminal-301799740-r1" clip-path="url(#terminal-301799740-line-15)" textLength="268.4">▔▔▔▔▔▔▔▔▔▔▔▔▔▔▔▔▔▔▔▔▔▔</text><text x="341.6" y="386" class="terminal-301799740-r6" clip-path="url(#terminal-301799740-line-15)" textLength="12.2">║</text><text x="402.6" y="386" class="terminal-301799740-r7" clip-path="url(#terminal-301799740-line-15)" textLength="61">path.</text><text x="1232.2" y="386" class="terminal-301799740-r6" clip-path="url(#terminal-301799740-line-15)" textLength="12.2">║</text><text x="97.6" y="410.4" class="terminal-301799740-r4" clip-path="url(#terminal-301799740-line-16)" textLength="61">solid</text><text x="268.4" y="410.4" class="terminal-301799740-r8" clip-path="url(#terminal-301799740-line-16)" textLength="24.4">▆▆</text><text x="341.6" y="410.4" class="terminal-301799740-r6" clip-path="url(#terminal-301799740-line-16)" textLength="12.2">║</text><text x="402.6" y="410.4" class="terminal-301799740-r7" clip-path="url(#terminal-301799740-line-16)" textLength="719.8">Where the fear has gone there will be nothing. Only I will</text><text x="1232.2" y="410.4" class="terminal-301799740-r6" clip-path="url(#terminal-301799740-line-16)" textLength="12.2">║</text><text x="0" y="434.8" class="terminal-301799740-r5" clip-path="url(#terminal-301799740-line-17)" textLength="268.4">▁▁▁▁▁▁▁▁▁▁▁▁▁▁▁▁▁▁▁▁▁▁</text><text x="341.6" y="434.8" class="terminal-301799740-r6" clip-path="url(#terminal-301799740-line-17)" textLength="12.2">║</text><text x="402.6" y="434.8" class="terminal-301799740-r7" clip-path="url(#terminal-301799740-line-17)" textLength="85.4">remain.</text><text x="1232.2" y="434.8" class="terminal-301799740-r6" clip-path="url(#terminal-301799740-line-17)" textLength="12.2">║</text><text x="0" y="459.2" class="terminal-301799740-r9" clip-path="url(#terminal-301799740-line-18)" textLength="268.4">▔▔▔▔▔▔▔▔▔▔▔▔▔▔▔▔▔▔▔▔▔▔</text><text x="341.6" y="459.2" class="terminal-301799740-r6" clip-path="url(#terminal-301799740-line-18)" textLength="12.2">║</text><text x="1232.2" y="459.2" class="terminal-301799740-r6" clip-path="url(#terminal-301799740-line-18)" textLength="12.2">║</text><text x="97.6" y="483.6" class="terminal-301799740-r10" clip-path="url(#terminal-301799740-line-19)" textLength="73.2">double</text><text x="341.6" y="483.6" class="terminal-301799740-r6" clip-path="url(#terminal-301799740-line-19)" textLength="12.2">║</text><text x="1232.2" y="483.6" class="terminal-301799740-r6" clip-path="url(#terminal-301799740-line-19)" textLength="12.2">║</text><text x="0" y="508" class="terminal-301799740-r5" clip-path="url(#terminal-301799740-line-20)" textLength="268.4">▁▁▁▁▁▁▁▁▁▁▁▁▁▁▁▁▁▁▁▁▁▁</text><text x="341.6" y="508" class="terminal-301799740-r6" clip-path="url(#terminal-301799740-line-20)" textLength="12.2">╚</text><text x="353.8" y="508" class="terminal-301799740-r6" clip-path="url(#terminal-301799740-line-20)" textLength="878.4">════════════════════════════════════════════════════════════════════════</text><text x="1232.2" y="508" class="terminal-301799740-r6" clip-path="url(#terminal-301799740-line-20)" textLength="12.2">╝</text><text x="0" y="532.4" class="terminal-301799740-r1" clip-path="url(#terminal-301799740-line-21)" textLength="268.4">▔▔▔▔▔▔▔▔▔▔▔▔▔▔▔▔▔▔▔▔▔▔</text><text x="97.6" y="556.8" class="terminal-301799740-r4" clip-path="url(#terminal-301799740-line-22)" textLength="73.2">dashed</text><text x="0" y="581.2" class="terminal-301799740-r5" clip-path="url(#terminal-301799740-line-23)" textLength="268.4">▁▁▁▁▁▁▁▁▁▁▁▁▁▁▁▁▁▁▁▁▁▁</text><text x="0" y="605.6" class="terminal-301799740-r1" clip-path="url(#terminal-301799740-line-24)" textLength="268.4">▔▔▔▔▔▔▔▔▔▔▔▔▔▔▔▔▔▔▔▔▔▔</text><text x="97.6" y="630" class="terminal-301799740-r4" clip-path="url(#terminal-301799740-line-25)" textLength="61">heavy</text><text x="0" y="654.4" class="terminal-301799740-r5" clip-path="url(#terminal-301799740-line-26)" textLength="268.4">▁▁▁▁▁▁▁▁▁▁▁▁▁▁▁▁▁▁▁▁▁▁</text></g></g></svg>