<svg xmlns="http://www.w3.org/2000/svg" class="rich-terminal" viewBox="0 0 897 562.4"><style>@font-face{font-family:&quot;Fira Code&quot;;src:local(&quot;FiraCode-Regular&quot;),url(https://cdnjs.cloudflare.com/ajax/libs/firacode/6.2.0/woff2/FiraCode-Regular.woff2) format(&quot;woff2&quot;),url(https://cdnjs.cloudflare.com/ajax/libs/firacode/6.2.0/woff/FiraCode-Regular.woff) format(&quot;woff&quot;);font-style:normal;font-weight:400}@font-face{font-family:&quot;Fira Code&quot;;src:local(&quot;FiraCode-Bold&quot;),url(https://cdnjs.cloudflare.com/ajax/libs/firacode/6.2.0/woff2/FiraCode-Bold.woff2) format(&quot;woff2&quot;),url(https://cdnjs.cloudflare.com/ajax/libs/firacode/6.2.0/woff/FiraCode-Bold.woff) format(&quot;woff&quot;);font-style:bold;font-weight:700}.terminal-2562693105-matrix{font-family:Fira Code,monospace;font-size:20px;line-height:24.4px;font-variant-east-asian:full-width}.terminal-2562693105-title{font-size:18px;font-weight:700;font-family:arial}.terminal-2562693105-r2{fill:#0d5083}.terminal-2562693105-r3{fill:#0763aa}.terminal-2562693105-r4{fill:#0579d5}.terminal-2562693105-r5{fill:#348ceb}.terminal-2562693105-r6{fill:#1a2832}</style><defs><clipPath id="terminal-2562693105-clip-terminal"><rect width="877.4" height="511.4" x="0" y="0"/></clipPath><clipPath id="terminal-2562693105-line-0"><rect width="878.4" height="24.65" x="0" y="1.5"/></clipPath><clipPath id="terminal-2562693105-line-1"><rect width="878.4" height="24.65" x="0" y="25.9"/></clipPath><clipPath id="terminal-2562693105-line-2"><rect width="878.4" height="24.65" x="0" y="50.3"/></clipPath><clipPath id="terminal-2562693105-line-3"><rect width="878.4" height="24.65" x="0" y="74.7"/></clipPath><clipPath id="terminal-2562693105-line-4"><rect width="878.4" height="24.65" x="0" y="99.1"/></clipPath><clipPath id="terminal-2562693105-line-5"><rect width="878.4" height="24.65" x="0" y="123.5"/></clipPath><clipPath id="terminal-2562693105-line-6"><rect width="878.4" height="24.65" x="0" y="147.9"/></clipPath><clipPath id="terminal-2562693105-line-7"><rect width="878.4" height="24.65" x="0" y="172.3"/></clipPath><clipPath id="terminal-2562693105-line-8"><rect width="878.4" height="24.65" x="0" y="196.7"/></clipPath><clipPath id="terminal-2562693105-line-9"><rect width="878.4" height="24.65" x="0" y="221.1"/></clipPath><clipPath id="terminal-2562693105-line-10"><rect width="878.4" height="24.65" x="0" y="245.5"/></clipPath><clipPath id="terminal-2562693105-line-11"><rect width="878.4" height="24.65" x="0" y="269.9"/></clipPath><clipPath id="terminal-2562693105-line-12"><rect width="878.4" height="24.65" x="0" y="294.3"/></clipPath><clipPath id="terminal-2562693105-line-13"><rect width="878.4" height="24.65" x="0" y="318.7"/></clipPath><clipPath id="terminal-2562693105-line-14"><rect width="878.4" height="24.65" x="0" y="343.1"/></clipPath><clipPath id="terminal-2562693105-line-15"><rect width="878.4" height="24.65" x="0" y="367.5"/></clipPath><clipPath id="terminal-2562693105-line-16"><rect width="878.4" height="24.65" x="0" y="391.9"/></clipPath><clipPath id="terminal-2562693105-line-17"><rect width="878.4" height="24.65" x="0" y="416.3"/></clipPath><clipPath id="terminal-2562693105-line-18"><rect width="878.4" height="24.65" x="0" y="440.7"/></clipPath><clipPath id="terminal-2562693105-line-19"><rect width="878.4" height="24.65" x="0" y="465.1"/></clipPath></defs><rect width="895" height="560.4" x="1" y="1" fill="#292929" stroke="rgba(255,255,255,0.35)" stroke-width="1" rx="8"/><text x="447" y="27" fill="#c5c8c6" class="terminal-2562693105-title" text-anchor="middle">LoadingApp</text><g transform="translate(26,22)"><circle cx="0" cy="0" r="7" fill="#ff5f57"/><circle cx="22" cy="0" r="7" fill="#febc2e"/><circle cx="44" cy="0" r="7" fill="#28c840"/></g><g clip-path="url(#terminal-2562693105-clip-terminal)" transform="translate(9, 41)"><rect width="878.4" height="24.65" x="0" y="1.5" fill="#1e1e1e" shape-rendering="crispEdges"/><rect width="878.4" height="24.65" x="0" y="25.9" fill="#1e1e1e" shape-rendering="crispEdges"/><rect width="878.4" height="24.65" x="0" y="50.3" fill="#1e1e1e" shape-rendering="crispEdges"/><rect width="878.4" height="24.65" x="0" y="74.7" fill="#1e1e1e" shape-rendering="crispEdges"/><rect width="878.4" height="24.65" x="0" y="99.1" fill="#1e1e1e" shape-rendering="crispEdges"/><rect width="878.4" height="24.65" x="0" y="123.5" fill="#1e1e1e" shape-rendering="crispEdges"/><rect width="878.4" height="24.65" x="0" y="147.9" fill="#1e1e1e" shape-rendering="crispEdges"/><rect width="878.4" height="24.65" x="0" y="172.3" fill="#1e1e1e" shape-rendering="crispEdges"/><rect width="878.4" height="24.65" x="0" y="196.7" fill="#1e1e1e" shape-rendering="crispEdges"/><rect width="878.4" height="24.65" x="0" y="221.1" fill="#1e1e1e" shape-rendering="crispEdges"/><rect width="378.2" height="24.65" x="0" y="245.5" fill="#1e1e1e" shape-rendering="crispEdges"/><rect width="24.4" height="24.65" x="378.2" y="245.5" fill="#1e1e1e" shape-rendering="crispEdges"/><rect width="24.4" height="24.65" x="402.6" y="245.5" fill="#1e1e1e" shape-rendering="crispEdges"/><rect width="24.4" height="24.65" x="427" y="245.5" fill="#1e1e1e" shape-rendering="crispEdges"/><rect width="24.4" height="24.65" x="451.4" y="245.5" fill="#1e1e1e" shape-rendering="crispEdges"/><rect width="12.2" height="24.65" x="475.8" y="245.5" fill="#1e1e1e" shape-rendering="crispEdges"/><rect width="390.4" height="24.65" x="488" y="245.5" fill="#1e1e1e" shape-rendering="crispEdges"/><rect width="878.4" height="24.65" x="0" y="269.9" fill="#1e1e1e" shape-rendering="crispEdges"/><rect width="878.4" height="24.65" x="0" y="294.3" fill="#1e1e1e" shape-rendering="crispEdges"/><rect width="878.4" height="24.65" x="0" y="318.7" fill="#1e1e1e" shape-rendering="crispEdges"/><rect width="878.4" height="24.65" x="0" y="343.1" fill="#1e1e1e" shape-rendering="crispEdges"/><rect width="878.4" height="24.65" x="0" y="367.5" fill="#1e1e1e" shape-rendering="crispEdges"/><rect width="878.4" height="24.65" x="0" y="391.9" fill="#1e1e1e" shape-rendering="crispEdges"/><rect width="878.4" height="24.65" x="0" y="416.3" fill="#1e1e1e" shape-rendering="crispEdges"/><rect width="878.4" height="24.65" x="0" y="440.7" fill="#1e1e1e" shape-rendering="crispEdges"/><rect width="878.4" height="24.65" x="0" y="465.1" fill="#1e1e1e" shape-rendering="crispEdges"/><rect width="878.4" height="24.65" x="0" y="489.5" fill="#1e1e1e" shape-rendering="crispEdges"/><g class="terminal-2562693105-matrix"><text x="378.2" y="264" class="terminal-2562693105-r2" clip-path="url(#terminal-2562693105-line-10)" textLength="24.4">●</text><text x="402.6" y="264" class="terminal-2562693105-r3" clip-path="url(#terminal-2562693105-line-10)" textLength="24.4">●</text><text x="427" y="264" class="terminal-2562693105-r4" clip-path="url(#terminal-2562693105-line-10)" textLength="24.4">●</text><text x="451.4" y="264" class="terminal-2562693105-r5" clip-path="url(#terminal-2562693105-line-10)" textLength="24.4">●</text><text x="475.8" y="264" class="terminal-2562693105-r6" clip-path="url(#terminal-2562693105-line-10)" textLength="12.2">●</text></g></g></svg>