<svg xmlns="http://www.w3.org/2000/svg" class="rich-terminal" viewBox="0 0 994 635.6"><style>@font-face{font-family:&quot;Fira Code&quot;;src:local(&quot;FiraCode-Regular&quot;),url(https://cdnjs.cloudflare.com/ajax/libs/firacode/6.2.0/woff2/FiraCode-Regular.woff2) format(&quot;woff2&quot;),url(https://cdnjs.cloudflare.com/ajax/libs/firacode/6.2.0/woff/FiraCode-Regular.woff) format(&quot;woff&quot;);font-style:normal;font-weight:400}@font-face{font-family:&quot;Fira Code&quot;;src:local(&quot;FiraCode-Bold&quot;),url(https://cdnjs.cloudflare.com/ajax/libs/firacode/6.2.0/woff2/FiraCode-Bold.woff2) format(&quot;woff2&quot;),url(https://cdnjs.cloudflare.com/ajax/libs/firacode/6.2.0/woff/FiraCode-Bold.woff) format(&quot;woff&quot;);font-style:bold;font-weight:700}.terminal-2023532609-matrix{font-family:Fira Code,monospace;font-size:20px;line-height:24.4px;font-variant-east-asian:full-width}.terminal-2023532609-title{font-size:18px;font-weight:700;font-family:arial}.terminal-2023532609-r1{fill:#ebe0e9}.terminal-2023532609-r3{fill:#eee3e6}.terminal-2023532609-r4{fill:#f1e8e8}.terminal-2023532609-r5{fill:#f4ece5}.terminal-2023532609-r6{fill:#f4f3df}.terminal-2023532609-r7{fill:#ecf3e6}.terminal-2023532609-r10{fill:#e2f1ef}.terminal-2023532609-r11{fill:#e5f3eb;font-weight:700}.terminal-2023532609-r12{fill:#dfeff1;font-weight:700}.terminal-2023532609-r14{fill:#dfecf1}.terminal-2023532609-r15{fill:#e3e8ef;font-weight:700}.terminal-2023532609-r16{fill:#e8e3ec}.terminal-2023532609-r17{fill:#14191f}</style><defs><clipPath id="terminal-2023532609-clip-terminal"><rect width="975" height="584.6" x="0" y="0"/></clipPath><clipPath id="terminal-2023532609-line-0"><rect width="976" height="24.65" x="0" y="1.5"/></clipPath><clipPath id="terminal-2023532609-line-1"><rect width="976" height="24.65" x="0" y="25.9"/></clipPath><clipPath id="terminal-2023532609-line-2"><rect width="976" height="24.65" x="0" y="50.3"/></clipPath><clipPath id="terminal-2023532609-line-3"><rect width="976" height="24.65" x="0" y="74.7"/></clipPath><clipPath id="terminal-2023532609-line-4"><rect width="976" height="24.65" x="0" y="99.1"/></clipPath><clipPath id="terminal-2023532609-line-5"><rect width="976" height="24.65" x="0" y="123.5"/></clipPath><clipPath id="terminal-2023532609-line-6"><rect width="976" height="24.65" x="0" y="147.9"/></clipPath><clipPath id="terminal-2023532609-line-7"><rect width="976" height="24.65" x="0" y="172.3"/></clipPath><clipPath id="terminal-2023532609-line-8"><rect width="976" height="24.65" x="0" y="196.7"/></clipPath><clipPath id="terminal-2023532609-line-9"><rect width="976" height="24.65" x="0" y="221.1"/></clipPath><clipPath id="terminal-2023532609-line-10"><rect width="976" height="24.65" x="0" y="245.5"/></clipPath><clipPath id="terminal-2023532609-line-11"><rect width="976" height="24.65" x="0" y="269.9"/></clipPath><clipPath id="terminal-2023532609-line-12"><rect width="976" height="24.65" x="0" y="294.3"/></clipPath><clipPath id="terminal-2023532609-line-13"><rect width="976" height="24.65" x="0" y="318.7"/></clipPath><clipPath id="terminal-2023532609-line-14"><rect width="976" height="24.65" x="0" y="343.1"/></clipPath><clipPath id="terminal-2023532609-line-15"><rect width="976" height="24.65" x="0" y="367.5"/></clipPath><clipPath id="terminal-2023532609-line-16"><rect width="976" height="24.65" x="0" y="391.9"/></clipPath><clipPath id="terminal-2023532609-line-17"><rect width="976" height="24.65" x="0" y="416.3"/></clipPath><clipPath id="terminal-2023532609-line-18"><rect width="976" height="24.65" x="0" y="440.7"/></clipPath><clipPath id="terminal-2023532609-line-19"><rect width="976" height="24.65" x="0" y="465.1"/></clipPath><clipPath id="terminal-2023532609-line-20"><rect width="976" height="24.65" x="0" y="489.5"/></clipPath><clipPath id="terminal-2023532609-line-21"><rect width="976" height="24.65" x="0" y="513.9"/></clipPath><clipPath id="terminal-2023532609-line-22"><rect width="976" height="24.65" x="0" y="538.3"/></clipPath></defs><rect width="992" height="633.6" x="1" y="1" fill="#292929" stroke="rgba(255,255,255,0.35)" stroke-width="1" rx="8"/><text x="496" y="27" fill="#c5c8c6" class="terminal-2023532609-title" text-anchor="middle">PlaceholderApp</text><g transform="translate(26,22)"><circle cx="0" cy="0" r="7" fill="#ff5f57"/><circle cx="22" cy="0" r="7" fill="#febc2e"/><circle cx="44" cy="0" r="7" fill="#28c840"/></g><g clip-path="url(#terminal-2023532609-clip-terminal)" transform="translate(9, 41)"><rect width="0" height="24.65" x="0" y="1.5" fill="#68145c" shape-rendering="crispEdges"/><rect width="488" height="24.65" x="0" y="1.5" fill="#68145c" shape-rendering="crispEdges"/><rect width="0" height="24.65" x="488" y="1.5" fill="#802c44" shape-rendering="crispEdges"/><rect width="488" height="24.65" x="488" y="1.5" fill="#802c44" shape-rendering="crispEdges"/><rect width="488" height="24.65" x="0" y="25.9" fill="#68145c" shape-rendering="crispEdges"/><rect width="122" height="24.65" x="488" y="25.9" fill="#802c44" shape-rendering="crispEdges"/><rect width="244" height="24.65" x="610" y="25.9" fill="#802c44" shape-rendering="crispEdges"/><rect width="122" height="24.65" x="854" y="25.9" fill="#802c44" shape-rendering="crispEdges"/><rect width="61" height="24.65" x="0" y="50.3" fill="#68145c" shape-rendering="crispEdges"/><rect width="366" height="24.65" x="61" y="50.3" fill="#68145c" shape-rendering="crispEdges"/><rect width="61" height="24.65" x="427" y="50.3" fill="#68145c" shape-rendering="crispEdges"/><rect width="488" height="24.65" x="488" y="50.3" fill="#802c44" shape-rendering="crispEdges"/><rect width="488" height="24.65" x="0" y="74.7" fill="#68145c" shape-rendering="crispEdges"/><rect width="0" height="24.65" x="488" y="74.7" fill="#975050" shape-rendering="crispEdges"/><rect width="244" height="24.65" x="488" y="74.7" fill="#975050" shape-rendering="crispEdges"/><rect width="97.6" height="24.65" x="732" y="74.7" fill="#af7438" shape-rendering="crispEdges"/><rect width="36.6" height="24.65" x="829.6" y="74.7" fill="#af7438" shape-rendering="crispEdges"/><rect width="109.8" height="24.65" x="866.2" y="74.7" fill="#af7438" shape-rendering="crispEdges"/><rect width="488" height="24.65" x="0" y="99.1" fill="#68145c" shape-rendering="crispEdges"/><rect width="97.6" height="24.65" x="488" y="99.1" fill="#975050" shape-rendering="crispEdges"/><rect width="36.6" height="24.65" x="585.6" y="99.1" fill="#975050" shape-rendering="crispEdges"/><rect width="109.8" height="24.65" x="622.2" y="99.1" fill="#975050" shape-rendering="crispEdges"/><rect width="36.6" height="24.65" x="732" y="99.1" fill="#afa309" shape-rendering="crispEdges"/><rect width="36.6" height="24.65" x="768.6" y="99.1" fill="#afa309" shape-rendering="crispEdges"/><rect width="48.8" height="24.65" x="805.2" y="99.1" fill="#afa309" shape-rendering="crispEdges"/><rect width="0" height="24.65" x="854" y="99.1" fill="#74a344" shape-rendering="crispEdges"/><rect width="122" height="24.65" x="854" y="99.1" fill="#74a344" shape-rendering="crispEdges"/><rect width="488" height="24.65" x="0" y="123.5" fill="#68145c" shape-rendering="crispEdges"/><rect width="244" height="24.65" x="488" y="123.5" fill="#975050" shape-rendering="crispEdges"/><rect width="122" height="24.65" x="732" y="123.5" fill="#afa309" shape-rendering="crispEdges"/><rect width="0" height="24.65" x="854" y="123.5" fill="#74a344" shape-rendering="crispEdges"/><rect width="12.2" height="24.65" x="854" y="123.5" fill="#74a344" shape-rendering="crispEdges"/><rect width="109.8" height="24.65" x="866.2" y="123.5" fill="#74a344" shape-rendering="crispEdges"/><rect width="0" height="24.65" x="0" y="147.9" fill="#38a368" shape-rendering="crispEdges"/><rect width="317.2" height="24.65" x="0" y="147.9" fill="#38a368" shape-rendering="crispEdges"/><rect width="329.4" height="24.65" x="317.2" y="147.9" fill="#20978b" shape-rendering="crispEdges"/><rect width="0" height="24.65" x="646.6" y="147.9" fill="#098b97" shape-rendering="crispEdges"/><rect width="329.4" height="24.65" x="646.6" y="147.9" fill="#098b97" shape-rendering="crispEdges"/><rect width="317.2" height="24.65" x="0" y="172.3" fill="#38a368" shape-rendering="crispEdges"/><rect width="12.2" height="24.65" x="317.2" y="172.3" fill="#20978b" shape-rendering="crispEdges"/><rect width="0" height="24.65" x="329.4" y="172.3" fill="#20978b" shape-rendering="crispEdges"/><rect width="268.4" height="24.65" x="329.4" y="172.3" fill="#20978b" shape-rendering="crispEdges"/><rect width="12.2" height="24.65" x="597.8" y="172.3" fill="#20978b" shape-rendering="crispEdges"/><rect width="24.4" height="24.65" x="610" y="172.3" fill="#23568b" shape-rendering="crispEdges"/><rect width="12.2" height="24.65" x="634.4" y="172.3" fill="#20978b" shape-rendering="crispEdges"/><rect width="329.4" height="24.65" x="646.6" y="172.3" fill="#098b97" shape-rendering="crispEdges"/><rect width="122" height="24.65" x="0" y="196.7" fill="#38a368" shape-rendering="crispEdges"/><rect width="73.2" height="24.65" x="122" y="196.7" fill="#38a368" shape-rendering="crispEdges"/><rect width="122" height="24.65" x="195.2" y="196.7" fill="#38a368" shape-rendering="crispEdges"/><rect width="12.2" height="24.65" x="317.2" y="196.7" fill="#20978b" shape-rendering="crispEdges"/><rect width="0" height="24.65" x="329.4" y="196.7" fill="#20978b" shape-rendering="crispEdges"/><rect width="219.6" height="24.65" x="329.4" y="196.7" fill="#20978b" shape-rendering="crispEdges"/><rect width="61" height="24.65" x="549" y="196.7" fill="#20978b" shape-rendering="crispEdges"/><rect width="24.4" height="24.65" x="610" y="196.7" fill="#14191f" shape-rendering="crispEdges"/><rect width="12.2" height="24.65" x="634.4" y="196.7" fill="#20978b" shape-rendering="crispEdges"/><rect width="122" height="24.65" x="646.6" y="196.7" fill="#098b97" shape-rendering="crispEdges"/><rect width="73.2" height="24.65" x="768.6" y="196.7" fill="#098b97" shape-rendering="crispEdges"/><rect width="134.2" height="24.65" x="841.8" y="196.7" fill="#098b97" shape-rendering="crispEdges"/><rect width="317.2" height="24.65" x="0" y="221.1" fill="#38a368" shape-rendering="crispEdges"/><rect width="12.2" height="24.65" x="317.2" y="221.1" fill="#20978b" shape-rendering="crispEdges"/><rect width="0" height="24.65" x="329.4" y="221.1" fill="#20978b" shape-rendering="crispEdges"/><rect width="280.6" height="24.65" x="329.4" y="221.1" fill="#20978b" shape-rendering="crispEdges"/><rect width="24.4" height="24.65" x="610" y="221.1" fill="#14191f" shape-rendering="crispEdges"/><rect width="12.2" height="24.65" x="634.4" y="221.1" fill="#20978b" shape-rendering="crispEdges"/><rect width="329.4" height="24.65" x="646.6" y="221.1" fill="#098b97" shape-rendering="crispEdges"/><rect width="317.2" height="24.65" x="0" y="245.5" fill="#38a368" shape-rendering="crispEdges"/><rect width="12.2" height="24.65" x="317.2" y="245.5" fill="#20978b" shape-rendering="crispEdges"/><rect width="0" height="24.65" x="329.4" y="245.5" fill="#20978b" shape-rendering="crispEdges"/><rect width="244" height="24.65" x="329.4" y="245.5" fill="#20978b" shape-rendering="crispEdges"/><rect width="36.6" height="24.65" x="573.4" y="245.5" fill="#20978b" shape-rendering="crispEdges"/><rect width="24.4" height="24.65" x="610" y="245.5" fill="#14191f" shape-rendering="crispEdges"/><rect width="12.2" height="24.65" x="634.4" y="245.5" fill="#20978b" shape-rendering="crispEdges"/><rect width="329.4" height="24.65" x="646.6" y="245.5" fill="#098b97" shape-rendering="crispEdges"/><rect width="317.2" height="24.65" x="0" y="269.9" fill="#38a368" shape-rendering="crispEdges"/><rect width="329.4" height="24.65" x="317.2" y="269.9" fill="#20978b" shape-rendering="crispEdges"/><rect width="329.4" height="24.65" x="646.6" y="269.9" fill="#098b97" shape-rendering="crispEdges"/><rect width="488" height="24.65" x="0" y="294.3" fill="#097497" shape-rendering="crispEdges"/><rect width="0" height="24.65" x="488" y="294.3" fill="#2c508b" shape-rendering="crispEdges"/><rect width="488" height="24.65" x="488" y="294.3" fill="#2c508b" shape-rendering="crispEdges"/><rect width="12.2" height="24.65" x="0" y="318.7" fill="#097497" shape-rendering="crispEdges"/><rect width="0" height="24.65" x="12.2" y="318.7" fill="#097497" shape-rendering="crispEdges"/><rect width="341.6" height="24.65" x="12.2" y="318.7" fill="#097497" shape-rendering="crispEdges"/><rect width="97.6" height="24.65" x="353.8" y="318.7" fill="#097497" shape-rendering="crispEdges"/><rect width="24.4" height="24.65" x="451.4" y="318.7" fill="#23568b" shape-rendering="crispEdges"/><rect width="12.2" height="24.65" x="475.8" y="318.7" fill="#097497" shape-rendering="crispEdges"/><rect width="488" height="24.65" x="488" y="318.7" fill="#2c508b" shape-rendering="crispEdges"/><rect width="12.2" height="24.65" x="0" y="343.1" fill="#097497" shape-rendering="crispEdges"/><rect width="0" height="24.65" x="12.2" y="343.1" fill="#097497" shape-rendering="crispEdges"/><rect width="427" height="24.65" x="12.2" y="343.1" fill="#097497" shape-rendering="crispEdges"/><rect width="12.2" height="24.65" x="439.2" y="343.1" fill="#097497" shape-rendering="crispEdges"/><rect width="24.4" height="24.65" x="451.4" y="343.1" fill="#23568b" shape-rendering="crispEdges"/><rect width="12.2" height="24.65" x="475.8" y="343.1" fill="#097497" shape-rendering="crispEdges"/><rect width="207.4" height="24.65" x="488" y="343.1" fill="#2c508b" shape-rendering="crispEdges"/><rect width="73.2" height="24.65" x="695.4" y="343.1" fill="#2c508b" shape-rendering="crispEdges"/><rect width="207.4" height="24.65" x="768.6" y="343.1" fill="#2c508b" shape-rendering="crispEdges"/><rect width="12.2" height="24.65" x="0" y="367.5" fill="#097497" shape-rendering="crispEdges"/><rect width="0" height="24.65" x="12.2" y="367.5" fill="#097497" shape-rendering="crispEdges"/><rect width="427" height="24.65" x="12.2" y="367.5" fill="#097497" shape-rendering="crispEdges"/><rect width="12.2" height="24.65" x="439.2" y="367.5" fill="#097497" shape-rendering="crispEdges"/><rect width="24.4" height="24.65" x="451.4" y="367.5" fill="#23568b" shape-rendering="crispEdges"/><rect width="12.2" height="24.65" x="475.8" y="367.5" fill="#097497" shape-rendering="crispEdges"/><rect width="488" height="24.65" x="488" y="367.5" fill="#2c508b" shape-rendering="crispEdges"/><rect width="12.2" height="24.65" x="0" y="391.9" fill="#097497" shape-rendering="crispEdges"/><rect width="0" height="24.65" x="12.2" y="391.9" fill="#097497" shape-rendering="crispEdges"/><rect width="439.2" height="24.65" x="12.2" y="391.9" fill="#097497" shape-rendering="crispEdges"/><rect width="24.4" height="24.65" x="451.4" y="391.9" fill="#23568b" shape-rendering="crispEdges"/><rect width="12.2" height="24.65" x="475.8" y="391.9" fill="#097497" shape-rendering="crispEdges"/><rect width="488" height="24.65" x="488" y="391.9" fill="#2c508b" shape-rendering="crispEdges"/><rect width="12.2" height="24.65" x="0" y="416.3" fill="#097497" shape-rendering="crispEdges"/><rect width="0" height="24.65" x="12.2" y="416.3" fill="#097497" shape-rendering="crispEdges"/><rect width="378.2" height="24.65" x="12.2" y="416.3" fill="#097497" shape-rendering="crispEdges"/><rect width="61" height="24.65" x="390.4" y="416.3" fill="#097497" shape-rendering="crispEdges"/><rect width="24.4" height="24.65" x="451.4" y="416.3" fill="#23568b" shape-rendering="crispEdges"/><rect width="12.2" height="24.65" x="475.8" y="416.3" fill="#097497" shape-rendering="crispEdges"/><rect width="488" height="24.65" x="488" y="416.3" fill="#2c508b" shape-rendering="crispEdges"/><rect width="12.2" height="24.65" x="0" y="440.7" fill="#097497" shape-rendering="crispEdges"/><rect width="0" height="24.65" x="12.2" y="440.7" fill="#097497" shape-rendering="crispEdges"/><rect width="439.2" height="24.65" x="12.2" y="440.7" fill="#097497" shape-rendering="crispEdges"/><rect width="24.4" height="24.65" x="451.4" y="440.7" fill="#23568b" shape-rendering="crispEdges"/><rect width="12.2" height="24.65" x="475.8" y="440.7" fill="#097497" shape-rendering="crispEdges"/><rect width="488" height="24.65" x="488" y="440.7" fill="#502c74" shape-rendering="crispEdges"/><rect width="12.2" height="24.65" x="0" y="465.1" fill="#097497" shape-rendering="crispEdges"/><rect width="0" height="24.65" x="12.2" y="465.1" fill="#097497" shape-rendering="crispEdges"/><rect width="439.2" height="24.65" x="12.2" y="465.1" fill="#097497" shape-rendering="crispEdges"/><rect width="24.4" height="24.65" x="451.4" y="465.1" fill="#23568b" shape-rendering="crispEdges"/><rect width="12.2" height="24.65" x="475.8" y="465.1" fill="#097497" shape-rendering="crispEdges"/><rect width="12.2" height="24.65" x="488" y="465.1" fill="#502c74" shape-rendering="crispEdges"/><rect width="0" height="24.65" x="500.2" y="465.1" fill="#502c74" shape-rendering="crispEdges"/><rect width="341.6" height="24.65" x="500.2" y="465.1" fill="#502c74" shape-rendering="crispEdges"/><rect width="97.6" height="24.65" x="841.8" y="465.1" fill="#502c74" shape-rendering="crispEdges"/><rect width="24.4" height="24.65" x="939.4" y="465.1" fill="#23568b" shape-rendering="crispEdges"/><rect width="12.2" height="24.65" x="963.8" y="465.1" fill="#502c74" shape-rendering="crispEdges"/><rect width="12.2" height="24.65" x="0" y="489.5" fill="#097497" shape-rendering="crispEdges"/><rect width="0" height="24.65" x="12.2" y="489.5" fill="#097497" shape-rendering="crispEdges"/><rect width="427" height="24.65" x="12.2" y="489.5" fill="#097497" shape-rendering="crispEdges"/><rect width="12.2" height="24.65" x="439.2" y="489.5" fill="#097497" shape-rendering="crispEdges"/><rect width="24.4" height="24.65" x="451.4" y="489.5" fill="#23568b" shape-rendering="crispEdges"/><rect width="12.2" height="24.65" x="475.8" y="489.5" fill="#097497" shape-rendering="crispEdges"/><rect width="12.2" height="24.65" x="488" y="489.5" fill="#502c74" shape-rendering="crispEdges"/><rect width="0" height="24.65" x="500.2" y="489.5" fill="#502c74" shape-rendering="crispEdges"/><rect width="427" height="24.65" x="500.2" y="489.5" fill="#502c74" shape-rendering="crispEdges"/><rect width="12.2" height="24.65" x="927.2" y="489.5" fill="#502c74" shape-rendering="crispEdges"/><rect width="24.4" height="24.65" x="939.4" y="489.5" fill="#23568b" shape-rendering="crispEdges"/><rect width="12.2" height="24.65" x="963.8" y="489.5" fill="#502c74" shape-rendering="crispEdges"/><rect width="12.2" height="24.65" x="0" y="513.9" fill="#097497" shape-rendering="crispEdges"/><rect width="0" height="24.65" x="12.2" y="513.9" fill="#097497" shape-rendering="crispEdges"/><rect width="366" height="24.65" x="12.2" y="513.9" fill="#097497" shape-rendering="crispEdges"/><rect width="73.2" height="24.65" x="378.2" y="513.9" fill="#097497" shape-rendering="crispEdges"/><rect width="24.4" height="24.65" x="451.4" y="513.9" fill="#14191f" shape-rendering="crispEdges"/><rect width="12.2" height="24.65" x="475.8" y="513.9" fill="#097497" shape-rendering="crispEdges"/><rect width="12.2" height="24.65" x="488" y="513.9" fill="#502c74" shape-rendering="crispEdges"/><rect width="0" height="24.65" x="500.2" y="513.9" fill="#502c74" shape-rendering="crispEdges"/><rect width="427" height="24.65" x="500.2" y="513.9" fill="#502c74" shape-rendering="crispEdges"/><rect width="12.2" height="24.65" x="927.2" y="513.9" fill="#502c74" shape-rendering="crispEdges"/><rect width="24.4" height="24.65" x="939.4" y="513.9" fill="#14191f" shape-rendering="crispEdges"/><rect width="12.2" height="24.65" x="963.8" y="513.9" fill="#502c74" shape-rendering="crispEdges"/><rect width="12.2" height="24.65" x="0" y="538.3" fill="#097497" shape-rendering="crispEdges"/><rect width="0" height="24.65" x="12.2" y="538.3" fill="#097497" shape-rendering="crispEdges"/><rect width="366" height="24.65" x="12.2" y="538.3" fill="#097497" shape-rendering="crispEdges"/><rect width="73.2" height="24.65" x="378.2" y="538.3" fill="#097497" shape-rendering="crispEdges"/><rect width="24.4" height="24.65" x="451.4" y="538.3" fill="#14191f" shape-rendering="crispEdges"/><rect width="12.2" height="24.65" x="475.8" y="538.3" fill="#097497" shape-rendering="crispEdges"/><rect width="12.2" height="24.65" x="488" y="538.3" fill="#502c74" shape-rendering="crispEdges"/><rect width="0" height="24.65" x="500.2" y="538.3" fill="#502c74" shape-rendering="crispEdges"/><rect width="439.2" height="24.65" x="500.2" y="538.3" fill="#502c74" shape-rendering="crispEdges"/><rect width="24.4" height="24.65" x="939.4" y="538.3" fill="#14191f" shape-rendering="crispEdges"/><rect width="12.2" height="24.65" x="963.8" y="538.3" fill="#502c74" shape-rendering="crispEdges"/><rect width="488" height="24.65" x="0" y="562.7" fill="#097497" shape-rendering="crispEdges"/><rect width="488" height="24.65" x="488" y="562.7" fill="#502c74" shape-rendering="crispEdges"/><g class="terminal-2023532609-matrix"><text x="610" y="44.4" class="terminal-2023532609-r3" clip-path="url(#terminal-2023532609-line-1)" textLength="244">Placeholder p2 here!</text><text x="61" y="68.8" class="terminal-2023532609-r1" clip-path="url(#terminal-2023532609-line-2)" textLength="366">This is a custom label for p1.</text><text x="829.6" y="93.2" class="terminal-2023532609-r5" clip-path="url(#terminal-2023532609-line-3)" textLength="36.6">#p4</text><text x="585.6" y="117.6" class="terminal-2023532609-r4" clip-path="url(#terminal-2023532609-line-4)" textLength="36.6">#p3</text><text x="768.6" y="117.6" class="terminal-2023532609-r6" clip-path="url(#terminal-2023532609-line-4)" textLength="36.6">#p5</text><text x="854" y="117.6" class="terminal-2023532609-r7" clip-path="url(#terminal-2023532609-line-4)" textLength="122">Placeholde</text><text x="854" y="142" class="terminal-2023532609-r7" clip-path="url(#terminal-2023532609-line-5)" textLength="12.2">r</text><text x="329.4" y="190.8" class="terminal-2023532609-r10" clip-path="url(#terminal-2023532609-line-7)" textLength="268.4">Lorem ipsum dolor sit</text><text x="122" y="215.2" class="terminal-2023532609-r11" clip-path="url(#terminal-2023532609-line-8)" textLength="73.2">26 x 6</text><text x="329.4" y="215.2" class="terminal-2023532609-r10" clip-path="url(#terminal-2023532609-line-8)" textLength="219.6">amet, consectetur</text><text x="768.6" y="215.2" class="terminal-2023532609-r12" clip-path="url(#terminal-2023532609-line-8)" textLength="73.2">27 x 6</text><text x="329.4" y="239.6" class="terminal-2023532609-r10" clip-path="url(#terminal-2023532609-line-9)" textLength="280.6">adipiscing elit. Etiam</text><text x="329.4" y="264" class="terminal-2023532609-r10" clip-path="url(#terminal-2023532609-line-10)" textLength="244">feugiat ac elit sit</text><text x="12.2" y="337.2" class="terminal-2023532609-r14" clip-path="url(#terminal-2023532609-line-13)" textLength="341.6">Lorem ipsum dolor sit amet,</text><text x="12.2" y="361.6" class="terminal-2023532609-r14" clip-path="url(#terminal-2023532609-line-14)" textLength="427">consectetur adipiscing elit. Etiam</text><text x="695.4" y="361.6" class="terminal-2023532609-r15" clip-path="url(#terminal-2023532609-line-14)" textLength="73.2">40 x 6</text><text x="12.2" y="386" class="terminal-2023532609-r14" clip-path="url(#terminal-2023532609-line-15)" textLength="427">feugiat ac elit sit amet accumsan.</text><text x="12.2" y="410.4" class="terminal-2023532609-r14" clip-path="url(#terminal-2023532609-line-16)" textLength="439.2">Suspendisse bibendum nec libero quis</text><text x="12.2" y="434.8" class="terminal-2023532609-r14" clip-path="url(#terminal-2023532609-line-17)" textLength="378.2">gravida. Phasellus id eleifend</text><text x="12.2" y="459.2" class="terminal-2023532609-r14" clip-path="url(#terminal-2023532609-line-18)" textLength="439.2">ligula. Nullam imperdiet sem tellus,</text><text x="12.2" y="483.6" class="terminal-2023532609-r14" clip-path="url(#terminal-2023532609-line-19)" textLength="439.2">sed vehicula nisl faucibus sit amet.</text><text x="500.2" y="483.6" class="terminal-2023532609-r16" clip-path="url(#terminal-2023532609-line-19)" textLength="341.6">Lorem ipsum dolor sit amet,</text><text x="12.2" y="508" class="terminal-2023532609-r14" clip-path="url(#terminal-2023532609-line-20)" textLength="427">Praesent iaculis tempor ultricies.</text><text x="451.4" y="508" class="terminal-2023532609-r17" clip-path="url(#terminal-2023532609-line-20)" textLength="24.4">▆▆</text><text x="500.2" y="508" class="terminal-2023532609-r16" clip-path="url(#terminal-2023532609-line-20)" textLength="427">consectetur adipiscing elit. Etiam</text><text x="939.4" y="508" class="terminal-2023532609-r17" clip-path="url(#terminal-2023532609-line-20)" textLength="24.4">▆▆</text><text x="12.2" y="532.4" class="terminal-2023532609-r14" clip-path="url(#terminal-2023532609-line-21)" textLength="366">Sed lacinia, tellus id rutrum</text><text x="500.2" y="532.4" class="terminal-2023532609-r16" clip-path="url(#terminal-2023532609-line-21)" textLength="427">feugiat ac elit sit amet accumsan.</text><text x="12.2" y="556.8" class="terminal-2023532609-r14" clip-path="url(#terminal-2023532609-line-22)" textLength="366">lacinia, sapien sapien congue</text><text x="500.2" y="556.8" class="terminal-2023532609-r16" clip-path="url(#terminal-2023532609-line-22)" textLength="439.2">Suspendisse bibendum nec libero quis</text></g></g></svg>