<svg xmlns="http://www.w3.org/2000/svg" class="rich-terminal" viewBox="0 0 994 586.8"><style>@font-face{font-family:&quot;Fira Code&quot;;src:local(&quot;FiraCode-Regular&quot;),url(https://cdnjs.cloudflare.com/ajax/libs/firacode/6.2.0/woff2/FiraCode-Regular.woff2) format(&quot;woff2&quot;),url(https://cdnjs.cloudflare.com/ajax/libs/firacode/6.2.0/woff/FiraCode-Regular.woff) format(&quot;woff&quot;);font-style:normal;font-weight:400}@font-face{font-family:&quot;Fira Code&quot;;src:local(&quot;FiraCode-Bold&quot;),url(https://cdnjs.cloudflare.com/ajax/libs/firacode/6.2.0/woff2/FiraCode-Bold.woff2) format(&quot;woff2&quot;),url(https://cdnjs.cloudflare.com/ajax/libs/firacode/6.2.0/woff/FiraCode-Bold.woff) format(&quot;woff&quot;);font-style:bold;font-weight:700}.terminal-3568480132-matrix{font-family:Fira Code,monospace;font-size:20px;line-height:24.4px;font-variant-east-asian:full-width}.terminal-3568480132-title{font-size:18px;font-weight:700;font-family:arial}.terminal-3568480132-r2{fill:#e3e3e3}.terminal-3568480132-r4{fill:#0178d4}.terminal-3568480132-r5{fill:#62666a}.terminal-3568480132-r6{fill:#4ebf71;font-weight:700}.terminal-3568480132-r7{fill:#e4e5e6}.terminal-3568480132-r8{fill:#34393f;font-weight:700}.terminal-3568480132-r9{fill:#ddedf9;font-weight:700}</style><defs><clipPath id="terminal-3568480132-clip-terminal"><rect width="975" height="535.8" x="0" y="0"/></clipPath><clipPath id="terminal-3568480132-line-0"><rect width="976" height="24.65" x="0" y="1.5"/></clipPath><clipPath id="terminal-3568480132-line-1"><rect width="976" height="24.65" x="0" y="25.9"/></clipPath><clipPath id="terminal-3568480132-line-2"><rect width="976" height="24.65" x="0" y="50.3"/></clipPath><clipPath id="terminal-3568480132-line-3"><rect width="976" height="24.65" x="0" y="74.7"/></clipPath><clipPath id="terminal-3568480132-line-4"><rect width="976" height="24.65" x="0" y="99.1"/></clipPath><clipPath id="terminal-3568480132-line-5"><rect width="976" height="24.65" x="0" y="123.5"/></clipPath><clipPath id="terminal-3568480132-line-6"><rect width="976" height="24.65" x="0" y="147.9"/></clipPath><clipPath id="terminal-3568480132-line-7"><rect width="976" height="24.65" x="0" y="172.3"/></clipPath><clipPath id="terminal-3568480132-line-8"><rect width="976" height="24.65" x="0" y="196.7"/></clipPath><clipPath id="terminal-3568480132-line-9"><rect width="976" height="24.65" x="0" y="221.1"/></clipPath><clipPath id="terminal-3568480132-line-10"><rect width="976" height="24.65" x="0" y="245.5"/></clipPath><clipPath id="terminal-3568480132-line-11"><rect width="976" height="24.65" x="0" y="269.9"/></clipPath><clipPath id="terminal-3568480132-line-12"><rect width="976" height="24.65" x="0" y="294.3"/></clipPath><clipPath id="terminal-3568480132-line-13"><rect width="976" height="24.65" x="0" y="318.7"/></clipPath><clipPath id="terminal-3568480132-line-14"><rect width="976" height="24.65" x="0" y="343.1"/></clipPath><clipPath id="terminal-3568480132-line-15"><rect width="976" height="24.65" x="0" y="367.5"/></clipPath><clipPath id="terminal-3568480132-line-16"><rect width="976" height="24.65" x="0" y="391.9"/></clipPath><clipPath id="terminal-3568480132-line-17"><rect width="976" height="24.65" x="0" y="416.3"/></clipPath><clipPath id="terminal-3568480132-line-18"><rect width="976" height="24.65" x="0" y="440.7"/></clipPath><clipPath id="terminal-3568480132-line-19"><rect width="976" height="24.65" x="0" y="465.1"/></clipPath><clipPath id="terminal-3568480132-line-20"><rect width="976" height="24.65" x="0" y="489.5"/></clipPath></defs><rect width="992" height="584.8" x="1" y="1" fill="#292929" stroke="rgba(255,255,255,0.35)" stroke-width="1" rx="8"/><text x="496" y="27" fill="#c5c8c6" class="terminal-3568480132-title" text-anchor="middle">SelectionListApp</text><g transform="translate(26,22)"><circle cx="0" cy="0" r="7" fill="#ff5f57"/><circle cx="22" cy="0" r="7" fill="#febc2e"/><circle cx="44" cy="0" r="7" fill="#28c840"/></g><g clip-path="url(#terminal-3568480132-clip-terminal)" transform="translate(9, 41)"><rect width="12.2" height="24.65" x="0" y="1.5" fill="#282828" shape-rendering="crispEdges"/><rect width="12.2" height="24.65" x="12.2" y="1.5" fill="#282828" shape-rendering="crispEdges"/><rect width="61" height="24.65" x="24.4" y="1.5" fill="#282828" shape-rendering="crispEdges"/><rect width="12.2" height="24.65" x="85.4" y="1.5" fill="#282828" shape-rendering="crispEdges"/><rect width="280.6" height="24.65" x="97.6" y="1.5" fill="#282828" shape-rendering="crispEdges"/><rect width="195.2" height="24.65" x="378.2" y="1.5" fill="#282828" shape-rendering="crispEdges"/><rect width="280.6" height="24.65" x="573.4" y="1.5" fill="#282828" shape-rendering="crispEdges"/><rect width="12.2" height="24.65" x="854" y="1.5" fill="#282828" shape-rendering="crispEdges"/><rect width="0" height="24.65" x="866.2" y="1.5" fill="#282828" shape-rendering="crispEdges"/><rect width="97.6" height="24.65" x="866.2" y="1.5" fill="#282828" shape-rendering="crispEdges"/><rect width="12.2" height="24.65" x="963.8" y="1.5" fill="#282828" shape-rendering="crispEdges"/><rect width="976" height="24.65" x="0" y="25.9" fill="#1e1e1e" shape-rendering="crispEdges"/><rect width="976" height="24.65" x="0" y="50.3" fill="#1e1e1e" shape-rendering="crispEdges"/><rect width="97.6" height="24.65" x="0" y="74.7" fill="#1e1e1e" shape-rendering="crispEdges"/><rect width="12.2" height="24.65" x="97.6" y="74.7" fill="#34393f" shape-rendering="crispEdges"/><rect width="12.2" height="24.65" x="109.8" y="74.7" fill="#34393f" shape-rendering="crispEdges"/><rect width="329.4" height="24.65" x="122" y="74.7" fill="#34393f" shape-rendering="crispEdges"/><rect width="414.8" height="24.65" x="451.4" y="74.7" fill="#34393f" shape-rendering="crispEdges"/><rect width="12.2" height="24.65" x="866.2" y="74.7" fill="#34393f" shape-rendering="crispEdges"/><rect width="97.6" height="24.65" x="878.4" y="74.7" fill="#1e1e1e" shape-rendering="crispEdges"/><rect width="97.6" height="24.65" x="0" y="99.1" fill="#1e1e1e" shape-rendering="crispEdges"/><rect width="12.2" height="24.65" x="97.6" y="99.1" fill="#34393f" shape-rendering="crispEdges"/><rect width="756.4" height="24.65" x="109.8" y="99.1" fill="#34393f" shape-rendering="crispEdges"/><rect width="12.2" height="24.65" x="866.2" y="99.1" fill="#34393f" shape-rendering="crispEdges"/><rect width="97.6" height="24.65" x="878.4" y="99.1" fill="#1e1e1e" shape-rendering="crispEdges"/><rect width="97.6" height="24.65" x="0" y="123.5" fill="#1e1e1e" shape-rendering="crispEdges"/><rect width="12.2" height="24.65" x="97.6" y="123.5" fill="#34393f" shape-rendering="crispEdges"/><rect width="12.2" height="24.65" x="109.8" y="123.5" fill="#34393f" shape-rendering="crispEdges"/><rect width="12.2" height="24.65" x="122" y="123.5" fill="#34393f" shape-rendering="crispEdges"/><rect width="12.2" height="24.65" x="134.2" y="123.5" fill="#62666a" shape-rendering="crispEdges"/><rect width="12.2" height="24.65" x="146.4" y="123.5" fill="#34393f" shape-rendering="crispEdges"/><rect width="12.2" height="24.65" x="158.6" y="123.5" fill="#34393f" shape-rendering="crispEdges"/><rect width="158.6" height="24.65" x="170.8" y="123.5" fill="#34393f" shape-rendering="crispEdges"/><rect width="524.6" height="24.65" x="329.4" y="123.5" fill="#34393f" shape-rendering="crispEdges"/><rect width="12.2" height="24.65" x="854" y="123.5" fill="#34393f" shape-rendering="crispEdges"/><rect width="12.2" height="24.65" x="866.2" y="123.5" fill="#34393f" shape-rendering="crispEdges"/><rect width="97.6" height="24.65" x="878.4" y="123.5" fill="#1e1e1e" shape-rendering="crispEdges"/><rect width="97.6" height="24.65" x="0" y="147.9" fill="#1e1e1e" shape-rendering="crispEdges"/><rect width="12.2" height="24.65" x="97.6" y="147.9" fill="#34393f" shape-rendering="crispEdges"/><rect width="12.2" height="24.65" x="109.8" y="147.9" fill="#34393f" shape-rendering="crispEdges"/><rect width="12.2" height="24.65" x="122" y="147.9" fill="#34393f" shape-rendering="crispEdges"/><rect width="12.2" height="24.65" x="134.2" y="147.9" fill="#62666a" shape-rendering="crispEdges"/><rect width="12.2" height="24.65" x="146.4" y="147.9" fill="#34393f" shape-rendering="crispEdges"/><rect width="12.2" height="24.65" x="158.6" y="147.9" fill="#34393f" shape-rendering="crispEdges"/><rect width="122" height="24.65" x="170.8" y="147.9" fill="#34393f" shape-rendering="crispEdges"/><rect width="561.2" height="24.65" x="292.8" y="147.9" fill="#34393f" shape-rendering="crispEdges"/><rect width="12.2" height="24.65" x="854" y="147.9" fill="#34393f" shape-rendering="crispEdges"/><rect width="12.2" height="24.65" x="866.2" y="147.9" fill="#34393f" shape-rendering="crispEdges"/><rect width="97.6" height="24.65" x="878.4" y="147.9" fill="#1e1e1e" shape-rendering="crispEdges"/><rect width="97.6" height="24.65" x="0" y="172.3" fill="#1e1e1e" shape-rendering="crispEdges"/><rect width="12.2" height="24.65" x="97.6" y="172.3" fill="#34393f" shape-rendering="crispEdges"/><rect width="12.2" height="24.65" x="109.8" y="172.3" fill="#34393f" shape-rendering="crispEdges"/><rect width="12.2" height="24.65" x="122" y="172.3" fill="#34393f" shape-rendering="crispEdges"/><rect width="12.2" height="24.65" x="134.2" y="172.3" fill="#62666a" shape-rendering="crispEdges"/><rect width="12.2" height="24.65" x="146.4" y="172.3" fill="#34393f" shape-rendering="crispEdges"/><rect width="12.2" height="24.65" x="158.6" y="172.3" fill="#34393f" shape-rendering="crispEdges"/><rect width="109.8" height="24.65" x="170.8" y="172.3" fill="#34393f" shape-rendering="crispEdges"/><rect width="573.4" height="24.65" x="280.6" y="172.3" fill="#34393f" shape-rendering="crispEdges"/><rect width="12.2" height="24.65" x="854" y="172.3" fill="#34393f" shape-rendering="crispEdges"/><rect width="12.2" height="24.65" x="866.2" y="172.3" fill="#34393f" shape-rendering="crispEdges"/><rect width="97.6" height="24.65" x="878.4" y="172.3" fill="#1e1e1e" shape-rendering="crispEdges"/><rect width="97.6" height="24.65" x="0" y="196.7" fill="#1e1e1e" shape-rendering="crispEdges"/><rect width="12.2" height="24.65" x="97.6" y="196.7" fill="#34393f" shape-rendering="crispEdges"/><rect width="12.2" height="24.65" x="109.8" y="196.7" fill="#34393f" shape-rendering="crispEdges"/><rect width="12.2" height="24.65" x="122" y="196.7" fill="#0178d4" shape-rendering="crispEdges"/><rect width="12.2" height="24.65" x="134.2" y="196.7" fill="#62666a" shape-rendering="crispEdges"/><rect width="12.2" height="24.65" x="146.4" y="196.7" fill="#0178d4" shape-rendering="crispEdges"/><rect width="12.2" height="24.65" x="158.6" y="196.7" fill="#0178d4" shape-rendering="crispEdges"/><rect width="73.2" height="24.65" x="170.8" y="196.7" fill="#0178d4" shape-rendering="crispEdges"/><rect width="610" height="24.65" x="244" y="196.7" fill="#0178d4" shape-rendering="crispEdges"/><rect width="12.2" height="24.65" x="854" y="196.7" fill="#34393f" shape-rendering="crispEdges"/><rect width="12.2" height="24.65" x="866.2" y="196.7" fill="#34393f" shape-rendering="crispEdges"/><rect width="97.6" height="24.65" x="878.4" y="196.7" fill="#1e1e1e" shape-rendering="crispEdges"/><rect width="97.6" height="24.65" x="0" y="221.1" fill="#1e1e1e" shape-rendering="crispEdges"/><rect width="12.2" height="24.65" x="97.6" y="221.1" fill="#34393f" shape-rendering="crispEdges"/><rect width="12.2" height="24.65" x="109.8" y="221.1" fill="#34393f" shape-rendering="crispEdges"/><rect width="12.2" height="24.65" x="122" y="221.1" fill="#34393f" shape-rendering="crispEdges"/><rect width="12.2" height="24.65" x="134.2" y="221.1" fill="#62666a" shape-rendering="crispEdges"/><rect width="12.2" height="24.65" x="146.4" y="221.1" fill="#34393f" shape-rendering="crispEdges"/><rect width="12.2" height="24.65" x="158.6" y="221.1" fill="#34393f" shape-rendering="crispEdges"/><rect width="73.2" height="24.65" x="170.8" y="221.1" fill="#34393f" shape-rendering="crispEdges"/><rect width="610" height="24.65" x="244" y="221.1" fill="#34393f" shape-rendering="crispEdges"/><rect width="12.2" height="24.65" x="854" y="221.1" fill="#34393f" shape-rendering="crispEdges"/><rect width="12.2" height="24.65" x="866.2" y="221.1" fill="#34393f" shape-rendering="crispEdges"/><rect width="97.6" height="24.65" x="878.4" y="221.1" fill="#1e1e1e" shape-rendering="crispEdges"/><rect width="97.6" height="24.65" x="0" y="245.5" fill="#1e1e1e" shape-rendering="crispEdges"/><rect width="12.2" height="24.65" x="97.6" y="245.5" fill="#34393f" shape-rendering="crispEdges"/><rect width="12.2" height="24.65" x="109.8" y="245.5" fill="#34393f" shape-rendering="crispEdges"/><rect width="12.2" height="24.65" x="122" y="245.5" fill="#34393f" shape-rendering="crispEdges"/><rect width="12.2" height="24.65" x="134.2" y="245.5" fill="#62666a" shape-rendering="crispEdges"/><rect width="12.2" height="24.65" x="146.4" y="245.5" fill="#34393f" shape-rendering="crispEdges"/><rect width="12.2" height="24.65" x="158.6" y="245.5" fill="#34393f" shape-rendering="crispEdges"/><rect width="97.6" height="24.65" x="170.8" y="245.5" fill="#34393f" shape-rendering="crispEdges"/><rect width="585.6" height="24.65" x="268.4" y="245.5" fill="#34393f" shape-rendering="crispEdges"/><rect width="12.2" height="24.65" x="854" y="245.5" fill="#34393f" shape-rendering="crispEdges"/><rect width="12.2" height="24.65" x="866.2" y="245.5" fill="#34393f" shape-rendering="crispEdges"/><rect width="97.6" height="24.65" x="878.4" y="245.5" fill="#1e1e1e" shape-rendering="crispEdges"/><rect width="97.6" height="24.65" x="0" y="269.9" fill="#1e1e1e" shape-rendering="crispEdges"/><rect width="12.2" height="24.65" x="97.6" y="269.9" fill="#34393f" shape-rendering="crispEdges"/><rect width="12.2" height="24.65" x="109.8" y="269.9" fill="#34393f" shape-rendering="crispEdges"/><rect width="12.2" height="24.65" x="122" y="269.9" fill="#34393f" shape-rendering="crispEdges"/><rect width="12.2" height="24.65" x="134.2" y="269.9" fill="#62666a" shape-rendering="crispEdges"/><rect width="12.2" height="24.65" x="146.4" y="269.9" fill="#34393f" shape-rendering="crispEdges"/><rect width="12.2" height="24.65" x="158.6" y="269.9" fill="#34393f" shape-rendering="crispEdges"/><rect width="61" height="24.65" x="170.8" y="269.9" fill="#34393f" shape-rendering="crispEdges"/><rect width="622.2" height="24.65" x="231.8" y="269.9" fill="#34393f" shape-rendering="crispEdges"/><rect width="12.2" height="24.65" x="854" y="269.9" fill="#34393f" shape-rendering="crispEdges"/><rect width="12.2" height="24.65" x="866.2" y="269.9" fill="#34393f" shape-rendering="crispEdges"/><rect width="97.6" height="24.65" x="878.4" y="269.9" fill="#1e1e1e" shape-rendering="crispEdges"/><rect width="97.6" height="24.65" x="0" y="294.3" fill="#1e1e1e" shape-rendering="crispEdges"/><rect width="12.2" height="24.65" x="97.6" y="294.3" fill="#34393f" shape-rendering="crispEdges"/><rect width="12.2" height="24.65" x="109.8" y="294.3" fill="#34393f" shape-rendering="crispEdges"/><rect width="12.2" height="24.65" x="122" y="294.3" fill="#34393f" shape-rendering="crispEdges"/><rect width="12.2" height="24.65" x="134.2" y="294.3" fill="#62666a" shape-rendering="crispEdges"/><rect width="12.2" height="24.65" x="146.4" y="294.3" fill="#34393f" shape-rendering="crispEdges"/><rect width="12.2" height="24.65" x="158.6" y="294.3" fill="#34393f" shape-rendering="crispEdges"/><rect width="61" height="24.65" x="170.8" y="294.3" fill="#34393f" shape-rendering="crispEdges"/><rect width="622.2" height="24.65" x="231.8" y="294.3" fill="#34393f" shape-rendering="crispEdges"/><rect width="12.2" height="24.65" x="854" y="294.3" fill="#34393f" shape-rendering="crispEdges"/><rect width="12.2" height="24.65" x="866.2" y="294.3" fill="#34393f" shape-rendering="crispEdges"/><rect width="97.6" height="24.65" x="878.4" y="294.3" fill="#1e1e1e" shape-rendering="crispEdges"/><rect width="97.6" height="24.65" x="0" y="318.7" fill="#1e1e1e" shape-rendering="crispEdges"/><rect width="12.2" height="24.65" x="97.6" y="318.7" fill="#34393f" shape-rendering="crispEdges"/><rect width="12.2" height="24.65" x="109.8" y="318.7" fill="#34393f" shape-rendering="crispEdges"/><rect width="12.2" height="24.65" x="122" y="318.7" fill="#34393f" shape-rendering="crispEdges"/><rect width="12.2" height="24.65" x="134.2" y="318.7" fill="#62666a" shape-rendering="crispEdges"/><rect width="12.2" height="24.65" x="146.4" y="318.7" fill="#34393f" shape-rendering="crispEdges"/><rect width="12.2" height="24.65" x="158.6" y="318.7" fill="#34393f" shape-rendering="crispEdges"/><rect width="170.8" height="24.65" x="170.8" y="318.7" fill="#34393f" shape-rendering="crispEdges"/><rect width="512.4" height="24.65" x="341.6" y="318.7" fill="#34393f" shape-rendering="crispEdges"/><rect width="12.2" height="24.65" x="854" y="318.7" fill="#34393f" shape-rendering="crispEdges"/><rect width="12.2" height="24.65" x="866.2" y="318.7" fill="#34393f" shape-rendering="crispEdges"/><rect width="97.6" height="24.65" x="878.4" y="318.7" fill="#1e1e1e" shape-rendering="crispEdges"/><rect width="97.6" height="24.65" x="0" y="343.1" fill="#1e1e1e" shape-rendering="crispEdges"/><rect width="12.2" height="24.65" x="97.6" y="343.1" fill="#34393f" shape-rendering="crispEdges"/><rect width="12.2" height="24.65" x="109.8" y="343.1" fill="#34393f" shape-rendering="crispEdges"/><rect width="732" height="24.65" x="122" y="343.1" fill="#34393f" shape-rendering="crispEdges"/><rect width="12.2" height="24.65" x="854" y="343.1" fill="#34393f" shape-rendering="crispEdges"/><rect width="12.2" height="24.65" x="866.2" y="343.1" fill="#34393f" shape-rendering="crispEdges"/><rect width="97.6" height="24.65" x="878.4" y="343.1" fill="#1e1e1e" shape-rendering="crispEdges"/><rect width="97.6" height="24.65" x="0" y="367.5" fill="#1e1e1e" shape-rendering="crispEdges"/><rect width="12.2" height="24.65" x="97.6" y="367.5" fill="#34393f" shape-rendering="crispEdges"/><rect width="12.2" height="24.65" x="109.8" y="367.5" fill="#34393f" shape-rendering="crispEdges"/><rect width="732" height="24.65" x="122" y="367.5" fill="#34393f" shape-rendering="crispEdges"/><rect width="12.2" height="24.65" x="854" y="367.5" fill="#34393f" shape-rendering="crispEdges"/><rect width="12.2" height="24.65" x="866.2" y="367.5" fill="#34393f" shape-rendering="crispEdges"/><rect width="97.6" height="24.65" x="878.4" y="367.5" fill="#1e1e1e" shape-rendering="crispEdges"/><rect width="97.6" height="24.65" x="0" y="391.9" fill="#1e1e1e" shape-rendering="crispEdges"/><rect width="12.2" height="24.65" x="97.6" y="391.9" fill="#34393f" shape-rendering="crispEdges"/><rect width="12.2" height="24.65" x="109.8" y="391.9" fill="#34393f" shape-rendering="crispEdges"/><rect width="732" height="24.65" x="122" y="391.9" fill="#34393f" shape-rendering="crispEdges"/><rect width="12.2" height="24.65" x="854" y="391.9" fill="#34393f" shape-rendering="crispEdges"/><rect width="12.2" height="24.65" x="866.2" y="391.9" fill="#34393f" shape-rendering="crispEdges"/><rect width="97.6" height="24.65" x="878.4" y="391.9" fill="#1e1e1e" shape-rendering="crispEdges"/><rect width="97.6" height="24.65" x="0" y="416.3" fill="#1e1e1e" shape-rendering="crispEdges"/><rect width="12.2" height="24.65" x="97.6" y="416.3" fill="#34393f" shape-rendering="crispEdges"/><rect width="756.4" height="24.65" x="109.8" y="416.3" fill="#34393f" shape-rendering="crispEdges"/><rect width="12.2" height="24.65" x="866.2" y="416.3" fill="#34393f" shape-rendering="crispEdges"/><rect width="97.6" height="24.65" x="878.4" y="416.3" fill="#1e1e1e" shape-rendering="crispEdges"/><rect width="97.6" height="24.65" x="0" y="440.7" fill="#1e1e1e" shape-rendering="crispEdges"/><rect width="12.2" height="24.65" x="97.6" y="440.7" fill="#34393f" shape-rendering="crispEdges"/><rect width="756.4" height="24.65" x="109.8" y="440.7" fill="#34393f" shape-rendering="crispEdges"/><rect width="12.2" height="24.65" x="866.2" y="440.7" fill="#34393f" shape-rendering="crispEdges"/><rect width="97.6" height="24.65" x="878.4" y="440.7" fill="#1e1e1e" shape-rendering="crispEdges"/><rect width="976" height="24.65" x="0" y="465.1" fill="#1e1e1e" shape-rendering="crispEdges"/><rect width="976" height="24.65" x="0" y="489.5" fill="#1e1e1e" shape-rendering="crispEdges"/><rect width="976" height="24.65" x="0" y="513.9" fill="#0178d4" shape-rendering="crispEdges"/><g class="terminal-3568480132-matrix"><text x="12.2" y="20" class="terminal-3568480132-r2" clip-path="url(#terminal-3568480132-line-0)" textLength="12.2">⭘</text><text x="378.2" y="20" class="terminal-3568480132-r2" clip-path="url(#terminal-3568480132-line-0)" textLength="195.2">SelectionListApp</text><text x="97.6" y="93.2" class="terminal-3568480132-r4" clip-path="url(#terminal-3568480132-line-3)" textLength="12.2">┌</text><text x="109.8" y="93.2" class="terminal-3568480132-r4" clip-path="url(#terminal-3568480132-line-3)" textLength="12.2">─</text><text x="122" y="93.2" class="terminal-3568480132-r4" clip-path="url(#terminal-3568480132-line-3)" textLength="329.4">Shall we play some games?</text><text x="451.4" y="93.2" class="terminal-3568480132-r4" clip-path="url(#terminal-3568480132-line-3)" textLength="414.8">──────────────────────────────────</text><text x="866.2" y="93.2" class="terminal-3568480132-r4" clip-path="url(#terminal-3568480132-line-3)" textLength="12.2">┐</text><text x="97.6" y="117.6" class="terminal-3568480132-r4" clip-path="url(#terminal-3568480132-line-4)" textLength="12.2">│</text><text x="866.2" y="117.6" class="terminal-3568480132-r4" clip-path="url(#terminal-3568480132-line-4)" textLength="12.2">│</text><text x="97.6" y="142" class="terminal-3568480132-r4" clip-path="url(#terminal-3568480132-line-5)" textLength="12.2">│</text><text x="122" y="142" class="terminal-3568480132-r5" clip-path="url(#terminal-3568480132-line-5)" textLength="12.2">▐</text><text x="134.2" y="142" class="terminal-3568480132-r6" clip-path="url(#terminal-3568480132-line-5)" textLength="12.2">X</text><text x="146.4" y="142" class="terminal-3568480132-r5" clip-path="url(#terminal-3568480132-line-5)" textLength="12.2">▌</text><text x="170.8" y="142" class="terminal-3568480132-r7" clip-path="url(#terminal-3568480132-line-5)" textLength="158.6">Falken&apos;s Maze</text><text x="866.2" y="142" class="terminal-3568480132-r4" clip-path="url(#terminal-3568480132-line-5)" textLength="12.2">│</text><text x="97.6" y="166.4" class="terminal-3568480132-r4" clip-path="url(#terminal-3568480132-line-6)" textLength="12.2">│</text><text x="122" y="166.4" class="terminal-3568480132-r5" clip-path="url(#terminal-3568480132-line-6)" textLength="12.2">▐</text><text x="134.2" y="166.4" class="terminal-3568480132-r8" clip-path="url(#terminal-3568480132-line-6)" textLength="12.2">X</text><text x="146.4" y="166.4" class="terminal-3568480132-r5" clip-path="url(#terminal-3568480132-line-6)" textLength="12.2">▌</text><text x="170.8" y="166.4" class="terminal-3568480132-r7" clip-path="url(#terminal-3568480132-line-6)" textLength="122">Black Jack</text><text x="866.2" y="166.4" class="terminal-3568480132-r4" clip-path="url(#terminal-3568480132-line-6)" textLength="12.2">│</text><text x="97.6" y="190.8" class="terminal-3568480132-r4" clip-path="url(#terminal-3568480132-line-7)" textLength="12.2">│</text><text x="122" y="190.8" class="terminal-3568480132-r5" clip-path="url(#terminal-3568480132-line-7)" textLength="12.2">▐</text><text x="134.2" y="190.8" class="terminal-3568480132-r8" clip-path="url(#terminal-3568480132-line-7)" textLength="12.2">X</text><text x="146.4" y="190.8" class="terminal-3568480132-r5" clip-path="url(#terminal-3568480132-line-7)" textLength="12.2">▌</text><text x="170.8" y="190.8" class="terminal-3568480132-r7" clip-path="url(#terminal-3568480132-line-7)" textLength="109.8">Gin Rummy</text><text x="866.2" y="190.8" class="terminal-3568480132-r4" clip-path="url(#terminal-3568480132-line-7)" textLength="12.2">│</text><text x="97.6" y="215.2" class="terminal-3568480132-r4" clip-path="url(#terminal-3568480132-line-8)" textLength="12.2">│</text><text x="122" y="215.2" class="terminal-3568480132-r5" clip-path="url(#terminal-3568480132-line-8)" textLength="12.2">▐</text><text x="134.2" y="215.2" class="terminal-3568480132-r8" clip-path="url(#terminal-3568480132-line-8)" textLength="12.2">X</text><text x="146.4" y="215.2" class="terminal-3568480132-r5" clip-path="url(#terminal-3568480132-line-8)" textLength="12.2">▌</text><text x="170.8" y="215.2" class="terminal-3568480132-r9" clip-path="url(#terminal-3568480132-line-8)" textLength="73.2">Hearts</text><text x="866.2" y="215.2" class="terminal-3568480132-r4" clip-path="url(#terminal-3568480132-line-8)" textLength="12.2">│</text><text x="97.6" y="239.6" class="terminal-3568480132-r4" clip-path="url(#terminal-3568480132-line-9)" textLength="12.2">│</text><text x="122" y="239.6" class="terminal-3568480132-r5" clip-path="url(#terminal-3568480132-line-9)" textLength="12.2">▐</text><text x="134.2" y="239.6" class="terminal-3568480132-r8" clip-path="url(#terminal-3568480132-line-9)" textLength="12.2">X</text><text x="146.4" y="239.6" class="terminal-3568480132-r5" clip-path="url(#terminal-3568480132-line-9)" textLength="12.2">▌</text><text x="170.8" y="239.6" class="terminal-3568480132-r7" clip-path="url(#terminal-3568480132-line-9)" textLength="73.2">Bridge</text><text x="866.2" y="239.6" class="terminal-3568480132-r4" clip-path="url(#terminal-3568480132-line-9)" textLength="12.2">│</text><text x="97.6" y="264" class="terminal-3568480132-r4" clip-path="url(#terminal-3568480132-line-10)" textLength="12.2">│</text><text x="122" y="264" class="terminal-3568480132-r5" clip-path="url(#terminal-3568480132-line-10)" textLength="12.2">▐</text><text x="134.2" y="264" class="terminal-3568480132-r8" clip-path="url(#terminal-3568480132-line-10)" textLength="12.2">X</text><text x="146.4" y="264" class="terminal-3568480132-r5" clip-path="url(#terminal-3568480132-line-10)" textLength="12.2">▌</text><text x="170.8" y="264" class="terminal-3568480132-r7" clip-path="url(#terminal-3568480132-line-10)" textLength="97.6">Checkers</text><text x="866.2" y="264" class="terminal-3568480132-r4" clip-path="url(#terminal-3568480132-line-10)" textLength="12.2">│</text><text x="97.6" y="288.4" class="terminal-3568480132-r4" clip-path="url(#terminal-3568480132-line-11)" textLength="12.2">│</text><text x="122" y="288.4" class="terminal-3568480132-r5" clip-path="url(#terminal-3568480132-line-11)" textLength="12.2">▐</text><text x="134.2" y="288.4" class="terminal-3568480132-r6" clip-path="url(#terminal-3568480132-line-11)" textLength="12.2">X</text><text x="146.4" y="288.4" class="terminal-3568480132-r5" clip-path="url(#terminal-3568480132-line-11)" textLength="12.2">▌</text><text x="170.8" y="288.4" class="terminal-3568480132-r7" clip-path="url(#terminal-3568480132-line-11)" textLength="61">Chess</text><text x="866.2" y="288.4" class="terminal-3568480132-r4" clip-path="url(#terminal-3568480132-line-11)" textLength="12.2">│</text><text x="97.6" y="312.8" class="terminal-3568480132-r4" clip-path="url(#terminal-3568480132-line-12)" textLength="12.2">│</text><text x="122" y="312.8" class="terminal-3568480132-r5" clip-path="url(#terminal-3568480132-line-12)" textLength="12.2">▐</text><text x="134.2" y="312.8" class="terminal-3568480132-r8" clip-path="url(#terminal-3568480132-line-12)" textLength="12.2">X</text><text x="146.4" y="312.8" class="terminal-3568480132-r5" clip-path="url(#terminal-3568480132-line-12)" textLength="12.2">▌</text><text x="170.8" y="312.8" class="terminal-3568480132-r7" clip-path="url(#terminal-3568480132-line-12)" textLength="61">Poker</text><text x="866.2" y="312.8" class="terminal-3568480132-r4" clip-path="url(#terminal-3568480132-line-12)" textLength="12.2">│</text><text x="97.6" y="337.2" class="terminal-3568480132-r4" clip-path="url(#terminal-3568480132-line-13)" textLength="12.2">│</text><text x="122" y="337.2" class="terminal-3568480132-r5" clip-path="url(#terminal-3568480132-line-13)" textLength="12.2">▐</text><text x="134.2" y="337.2" class="terminal-3568480132-r6" clip-path="url(#terminal-3568480132-line-13)" textLength="12.2">X</text><text x="146.4" y="337.2" class="terminal-3568480132-r5" clip-path="url(#terminal-3568480132-line-13)" textLength="12.2">▌</text><text x="170.8" y="337.2" class="terminal-3568480132-r7" clip-path="url(#terminal-3568480132-line-13)" textLength="170.8">Fighter Combat</text><text x="866.2" y="337.2" class="terminal-3568480132-r4" clip-path="url(#terminal-3568480132-line-13)" textLength="12.2">│</text><text x="97.6" y="361.6" class="terminal-3568480132-r4" clip-path="url(#terminal-3568480132-line-14)" textLength="12.2">│</text><text x="866.2" y="361.6" class="terminal-3568480132-r4" clip-path="url(#terminal-3568480132-line-14)" textLength="12.2">│</text><text x="97.6" y="386" class="terminal-3568480132-r4" clip-path="url(#terminal-3568480132-line-15)" textLength="12.2">│</text><text x="866.2" y="386" class="terminal-3568480132-r4" clip-path="url(#terminal-3568480132-line-15)" textLength="12.2">│</text><text x="97.6" y="410.4" class="terminal-3568480132-r4" clip-path="url(#terminal-3568480132-line-16)" textLength="12.2">│</text><text x="866.2" y="410.4" class="terminal-3568480132-r4" clip-path="url(#terminal-3568480132-line-16)" textLength="12.2">│</text><text x="97.6" y="434.8" class="terminal-3568480132-r4" clip-path="url(#terminal-3568480132-line-17)" textLength="12.2">│</text><text x="866.2" y="434.8" class="terminal-3568480132-r4" clip-path="url(#terminal-3568480132-line-17)" textLength="12.2">│</text><text x="97.6" y="459.2" class="terminal-3568480132-r4" clip-path="url(#terminal-3568480132-line-18)" textLength="12.2">└</text><text x="109.8" y="459.2" class="terminal-3568480132-r4" clip-path="url(#terminal-3568480132-line-18)" textLength="756.4">──────────────────────────────────────────────────────────────</text><text x="866.2" y="459.2" class="terminal-3568480132-r4" clip-path="url(#terminal-3568480132-line-18)" textLength="12.2">┘</text></g></g></svg>