<svg xmlns="http://www.w3.org/2000/svg" class="rich-terminal" viewBox="0 0 860 538"><style>@font-face{font-family:&quot;Fira Code&quot;;src:local(&quot;FiraCode-Regular&quot;),url(https://cdnjs.cloudflare.com/ajax/libs/firacode/6.2.0/woff2/FiraCode-Regular.woff2) format(&quot;woff2&quot;),url(https://cdnjs.cloudflare.com/ajax/libs/firacode/6.2.0/woff/FiraCode-Regular.woff) format(&quot;woff&quot;);font-style:normal;font-weight:400}@font-face{font-family:&quot;Fira Code&quot;;src:local(&quot;FiraCode-Bold&quot;),url(https://cdnjs.cloudflare.com/ajax/libs/firacode/6.2.0/woff2/FiraCode-Bold.woff2) format(&quot;woff2&quot;),url(https://cdnjs.cloudflare.com/ajax/libs/firacode/6.2.0/woff/FiraCode-Bold.woff) format(&quot;woff&quot;);font-style:bold;font-weight:700}.terminal-1356838233-matrix{font-family:Fira Code,monospace;font-size:20px;line-height:24.4px;font-variant-east-asian:full-width}.terminal-1356838233-title{font-size:18px;font-weight:700;font-family:arial}.terminal-1356838233-r1{fill:#1e1e1e}.terminal-1356838233-r2{fill:#0178d4}.terminal-1356838233-r4{fill:#e2e2e2}.terminal-1356838233-r5{fill:#787878;font-weight:700}</style><defs><clipPath id="terminal-1356838233-clip-terminal"><rect width="840.8" height="487" x="0" y="0"/></clipPath><clipPath id="terminal-1356838233-line-0"><rect width="841.8" height="24.65" x="0" y="1.5"/></clipPath><clipPath id="terminal-1356838233-line-1"><rect width="841.8" height="24.65" x="0" y="25.9"/></clipPath><clipPath id="terminal-1356838233-line-2"><rect width="841.8" height="24.65" x="0" y="50.3"/></clipPath><clipPath id="terminal-1356838233-line-3"><rect width="841.8" height="24.65" x="0" y="74.7"/></clipPath><clipPath id="terminal-1356838233-line-4"><rect width="841.8" height="24.65" x="0" y="99.1"/></clipPath><clipPath id="terminal-1356838233-line-5"><rect width="841.8" height="24.65" x="0" y="123.5"/></clipPath><clipPath id="terminal-1356838233-line-6"><rect width="841.8" height="24.65" x="0" y="147.9"/></clipPath><clipPath id="terminal-1356838233-line-7"><rect width="841.8" height="24.65" x="0" y="172.3"/></clipPath><clipPath id="terminal-1356838233-line-8"><rect width="841.8" height="24.65" x="0" y="196.7"/></clipPath><clipPath id="terminal-1356838233-line-9"><rect width="841.8" height="24.65" x="0" y="221.1"/></clipPath><clipPath id="terminal-1356838233-line-10"><rect width="841.8" height="24.65" x="0" y="245.5"/></clipPath><clipPath id="terminal-1356838233-line-11"><rect width="841.8" height="24.65" x="0" y="269.9"/></clipPath><clipPath id="terminal-1356838233-line-12"><rect width="841.8" height="24.65" x="0" y="294.3"/></clipPath><clipPath id="terminal-1356838233-line-13"><rect width="841.8" height="24.65" x="0" y="318.7"/></clipPath><clipPath id="terminal-1356838233-line-14"><rect width="841.8" height="24.65" x="0" y="343.1"/></clipPath><clipPath id="terminal-1356838233-line-15"><rect width="841.8" height="24.65" x="0" y="367.5"/></clipPath><clipPath id="terminal-1356838233-line-16"><rect width="841.8" height="24.65" x="0" y="391.9"/></clipPath><clipPath id="terminal-1356838233-line-17"><rect width="841.8" height="24.65" x="0" y="416.3"/></clipPath><clipPath id="terminal-1356838233-line-18"><rect width="841.8" height="24.65" x="0" y="440.7"/></clipPath></defs><rect width="858" height="536" x="1" y="1" fill="#292929" stroke="rgba(255,255,255,0.35)" stroke-width="1" rx="8"/><text x="429" y="27" fill="#c5c8c6" class="terminal-1356838233-title" text-anchor="middle">FruitsApp</text><g transform="translate(26,22)"><circle cx="0" cy="0" r="7" fill="#ff5f57"/><circle cx="22" cy="0" r="7" fill="#febc2e"/><circle cx="44" cy="0" r="7" fill="#28c840"/></g><g clip-path="url(#terminal-1356838233-clip-terminal)" transform="translate(9, 41)"><rect width="12.2" height="24.65" x="0" y="1.5" fill="#0178d4" shape-rendering="crispEdges"/><rect width="817.4" height="24.65" x="12.2" y="1.5" fill="#262626" shape-rendering="crispEdges"/><rect width="12.2" height="24.65" x="829.6" y="1.5" fill="#1e1e1e" shape-rendering="crispEdges"/><rect width="12.2" height="24.65" x="0" y="25.9" fill="#0178d4" shape-rendering="crispEdges"/><rect width="24.4" height="24.65" x="12.2" y="25.9" fill="#262626" shape-rendering="crispEdges"/><rect width="61" height="24.65" x="36.6" y="25.9" fill="#262626" shape-rendering="crispEdges"/><rect width="61" height="24.65" x="97.6" y="25.9" fill="#262626" shape-rendering="crispEdges"/><rect width="646.6" height="24.65" x="158.6" y="25.9" fill="#262626" shape-rendering="crispEdges"/><rect width="24.4" height="24.65" x="805.2" y="25.9" fill="#262626" shape-rendering="crispEdges"/><rect width="12.2" height="24.65" x="829.6" y="25.9" fill="#1e1e1e" shape-rendering="crispEdges"/><rect width="12.2" height="24.65" x="0" y="50.3" fill="#0178d4" shape-rendering="crispEdges"/><rect width="817.4" height="24.65" x="12.2" y="50.3" fill="#262626" shape-rendering="crispEdges"/><rect width="12.2" height="24.65" x="829.6" y="50.3" fill="#1e1e1e" shape-rendering="crispEdges"/><rect width="841.8" height="24.65" x="0" y="74.7" fill="#1e1e1e" shape-rendering="crispEdges"/><rect width="841.8" height="24.65" x="0" y="99.1" fill="#1e1e1e" shape-rendering="crispEdges"/><rect width="841.8" height="24.65" x="0" y="123.5" fill="#1e1e1e" shape-rendering="crispEdges"/><rect width="841.8" height="24.65" x="0" y="147.9" fill="#1e1e1e" shape-rendering="crispEdges"/><rect width="841.8" height="24.65" x="0" y="172.3" fill="#1e1e1e" shape-rendering="crispEdges"/><rect width="841.8" height="24.65" x="0" y="196.7" fill="#1e1e1e" shape-rendering="crispEdges"/><rect width="841.8" height="24.65" x="0" y="221.1" fill="#1e1e1e" shape-rendering="crispEdges"/><rect width="841.8" height="24.65" x="0" y="245.5" fill="#1e1e1e" shape-rendering="crispEdges"/><rect width="841.8" height="24.65" x="0" y="269.9" fill="#1e1e1e" shape-rendering="crispEdges"/><rect width="841.8" height="24.65" x="0" y="294.3" fill="#1e1e1e" shape-rendering="crispEdges"/><rect width="841.8" height="24.65" x="0" y="318.7" fill="#1e1e1e" shape-rendering="crispEdges"/><rect width="841.8" height="24.65" x="0" y="343.1" fill="#1e1e1e" shape-rendering="crispEdges"/><rect width="841.8" height="24.65" x="0" y="367.5" fill="#1e1e1e" shape-rendering="crispEdges"/><rect width="841.8" height="24.65" x="0" y="391.9" fill="#1e1e1e" shape-rendering="crispEdges"/><rect width="841.8" height="24.65" x="0" y="416.3" fill="#1e1e1e" shape-rendering="crispEdges"/><rect width="841.8" height="24.65" x="0" y="440.7" fill="#1e1e1e" shape-rendering="crispEdges"/><rect width="841.8" height="24.65" x="0" y="465.1" fill="#1e1e1e" shape-rendering="crispEdges"/><g class="terminal-1356838233-matrix"><text x="0" y="20" class="terminal-1356838233-r1" clip-path="url(#terminal-1356838233-line-0)" textLength="12.2">▊</text><text x="12.2" y="20" class="terminal-1356838233-r2" clip-path="url(#terminal-1356838233-line-0)" textLength="817.4">▔▔▔▔▔▔▔▔▔▔▔▔▔▔▔▔▔▔▔▔▔▔▔▔▔▔▔▔▔▔▔▔▔▔▔▔▔▔▔▔▔▔▔▔▔▔▔▔▔▔▔▔▔▔▔▔▔▔▔▔▔▔▔▔▔▔▔</text><text x="829.6" y="20" class="terminal-1356838233-r2" clip-path="url(#terminal-1356838233-line-0)" textLength="12.2">▎</text><text x="0" y="44.4" class="terminal-1356838233-r1" clip-path="url(#terminal-1356838233-line-1)" textLength="12.2">▊</text><text x="36.6" y="44.4" class="terminal-1356838233-r4" clip-path="url(#terminal-1356838233-line-1)" textLength="61">straw</text><text x="97.6" y="44.4" class="terminal-1356838233-r5" clip-path="url(#terminal-1356838233-line-1)" textLength="61">berry</text><text x="829.6" y="44.4" class="terminal-1356838233-r2" clip-path="url(#terminal-1356838233-line-1)" textLength="12.2">▎</text><text x="0" y="68.8" class="terminal-1356838233-r1" clip-path="url(#terminal-1356838233-line-2)" textLength="12.2">▊</text><text x="12.2" y="68.8" class="terminal-1356838233-r2" clip-path="url(#terminal-1356838233-line-2)" textLength="817.4">▁▁▁▁▁▁▁▁▁▁▁▁▁▁▁▁▁▁▁▁▁▁▁▁▁▁▁▁▁▁▁▁▁▁▁▁▁▁▁▁▁▁▁▁▁▁▁▁▁▁▁▁▁▁▁▁▁▁▁▁▁▁▁▁▁▁▁</text><text x="829.6" y="68.8" class="terminal-1356838233-r2" clip-path="url(#terminal-1356838233-line-2)" textLength="12.2">▎</text></g></g></svg>