<svg xmlns="http://www.w3.org/2000/svg" class="rich-terminal" viewBox="0 0 1043 782"><style>@font-face{font-family:&quot;Fira Code&quot;;src:local(&quot;FiraCode-Regular&quot;),url(https://cdnjs.cloudflare.com/ajax/libs/firacode/6.2.0/woff2/FiraCode-Regular.woff2) format(&quot;woff2&quot;),url(https://cdnjs.cloudflare.com/ajax/libs/firacode/6.2.0/woff/FiraCode-Regular.woff) format(&quot;woff&quot;);font-style:normal;font-weight:400}@font-face{font-family:&quot;Fira Code&quot;;src:local(&quot;FiraCode-Bold&quot;),url(https://cdnjs.cloudflare.com/ajax/libs/firacode/6.2.0/woff2/FiraCode-Bold.woff2) format(&quot;woff2&quot;),url(https://cdnjs.cloudflare.com/ajax/libs/firacode/6.2.0/woff/FiraCode-Bold.woff) format(&quot;woff&quot;);font-style:bold;font-weight:700}.terminal-1856857456-matrix{font-family:Fira Code,monospace;font-size:20px;line-height:24.4px;font-variant-east-asian:full-width}.terminal-1856857456-title{font-size:18px;font-weight:700;font-family:arial}.terminal-1856857456-r2{fill:#737373}.terminal-1856857456-r3{fill:#e1e1e1;font-weight:700}.terminal-1856857456-r4{fill:#474747}.terminal-1856857456-r5{fill:#0178d4}.terminal-1856857456-r7{fill:#1e1e1e}.terminal-1856857456-r8{fill:#004578}.terminal-1856857456-r9{fill:#e2e3e3}.terminal-1856857456-r10{fill:#dde8f3;font-weight:700}.terminal-1856857456-r11{fill:#ddedf9}</style><defs><clipPath id="terminal-1856857456-clip-terminal"><rect width="1023.8" height="731" x="0" y="0"/></clipPath><clipPath id="terminal-1856857456-line-0"><rect width="1024.8" height="24.65" x="0" y="1.5"/></clipPath><clipPath id="terminal-1856857456-line-1"><rect width="1024.8" height="24.65" x="0" y="25.9"/></clipPath><clipPath id="terminal-1856857456-line-2"><rect width="1024.8" height="24.65" x="0" y="50.3"/></clipPath><clipPath id="terminal-1856857456-line-3"><rect width="1024.8" height="24.65" x="0" y="74.7"/></clipPath><clipPath id="terminal-1856857456-line-4"><rect width="1024.8" height="24.65" x="0" y="99.1"/></clipPath><clipPath id="terminal-1856857456-line-5"><rect width="1024.8" height="24.65" x="0" y="123.5"/></clipPath><clipPath id="terminal-1856857456-line-6"><rect width="1024.8" height="24.65" x="0" y="147.9"/></clipPath><clipPath id="terminal-1856857456-line-7"><rect width="1024.8" height="24.65" x="0" y="172.3"/></clipPath><clipPath id="terminal-1856857456-line-8"><rect width="1024.8" height="24.65" x="0" y="196.7"/></clipPath><clipPath id="terminal-1856857456-line-9"><rect width="1024.8" height="24.65" x="0" y="221.1"/></clipPath><clipPath id="terminal-1856857456-line-10"><rect width="1024.8" height="24.65" x="0" y="245.5"/></clipPath><clipPath id="terminal-1856857456-line-11"><rect width="1024.8" height="24.65" x="0" y="269.9"/></clipPath><clipPath id="terminal-1856857456-line-12"><rect width="1024.8" height="24.65" x="0" y="294.3"/></clipPath><clipPath id="terminal-1856857456-line-13"><rect width="1024.8" height="24.65" x="0" y="318.7"/></clipPath><clipPath id="terminal-1856857456-line-14"><rect width="1024.8" height="24.65" x="0" y="343.1"/></clipPath><clipPath id="terminal-1856857456-line-15"><rect width="1024.8" height="24.65" x="0" y="367.5"/></clipPath><clipPath id="terminal-1856857456-line-16"><rect width="1024.8" height="24.65" x="0" y="391.9"/></clipPath><clipPath id="terminal-1856857456-line-17"><rect width="1024.8" height="24.65" x="0" y="416.3"/></clipPath><clipPath id="terminal-1856857456-line-18"><rect width="1024.8" height="24.65" x="0" y="440.7"/></clipPath><clipPath id="terminal-1856857456-line-19"><rect width="1024.8" height="24.65" x="0" y="465.1"/></clipPath><clipPath id="terminal-1856857456-line-20"><rect width="1024.8" height="24.65" x="0" y="489.5"/></clipPath><clipPath id="terminal-1856857456-line-21"><rect width="1024.8" height="24.65" x="0" y="513.9"/></clipPath><clipPath id="terminal-1856857456-line-22"><rect width="1024.8" height="24.65" x="0" y="538.3"/></clipPath><clipPath id="terminal-1856857456-line-23"><rect width="1024.8" height="24.65" x="0" y="562.7"/></clipPath><clipPath id="terminal-1856857456-line-24"><rect width="1024.8" height="24.65" x="0" y="587.1"/></clipPath><clipPath id="terminal-1856857456-line-25"><rect width="1024.8" height="24.65" x="0" y="611.5"/></clipPath><clipPath id="terminal-1856857456-line-26"><rect width="1024.8" height="24.65" x="0" y="635.9"/></clipPath><clipPath id="terminal-1856857456-line-27"><rect width="1024.8" height="24.65" x="0" y="660.3"/></clipPath><clipPath id="terminal-1856857456-line-28"><rect width="1024.8" height="24.65" x="0" y="684.7"/></clipPath></defs><rect width="1041" height="780" x="1" y="1" fill="#292929" stroke="rgba(255,255,255,0.35)" stroke-width="1" rx="8"/><text x="520" y="27" fill="#c5c8c6" class="terminal-1856857456-title" text-anchor="middle">TabsApp</text><g transform="translate(26,22)"><circle cx="0" cy="0" r="7" fill="#ff5f57"/><circle cx="22" cy="0" r="7" fill="#febc2e"/><circle cx="44" cy="0" r="7" fill="#28c840"/></g><g clip-path="url(#terminal-1856857456-clip-terminal)" transform="translate(9, 41)"><rect width="207.4" height="24.65" x="0" y="1.5" fill="#1e1e1e" shape-rendering="crispEdges"/><rect width="256.2" height="24.65" x="207.4" y="1.5" fill="#1e1e1e" shape-rendering="crispEdges"/><rect width="183" height="24.65" x="463.6" y="1.5" fill="#1e1e1e" shape-rendering="crispEdges"/><rect width="207.4" height="24.65" x="646.6" y="1.5" fill="#1e1e1e" shape-rendering="crispEdges"/><rect width="170.8" height="24.65" x="854" y="1.5" fill="#1e1e1e" shape-rendering="crispEdges"/><rect width="24.4" height="24.65" x="0" y="25.9" fill="#1e1e1e" shape-rendering="crispEdges"/><rect width="170.8" height="24.65" x="24.4" y="25.9" fill="#1e1e1e" shape-rendering="crispEdges"/><rect width="12.2" height="24.65" x="195.2" y="25.9" fill="#1e1e1e" shape-rendering="crispEdges"/><rect width="24.4" height="24.65" x="207.4" y="25.9" fill="#1e1e1e" shape-rendering="crispEdges"/><rect width="219.6" height="24.65" x="231.8" y="25.9" fill="#1e1e1e" shape-rendering="crispEdges"/><rect width="12.2" height="24.65" x="451.4" y="25.9" fill="#1e1e1e" shape-rendering="crispEdges"/><rect width="24.4" height="24.65" x="463.6" y="25.9" fill="#1e1e1e" shape-rendering="crispEdges"/><rect width="146.4" height="24.65" x="488" y="25.9" fill="#1e1e1e" shape-rendering="crispEdges"/><rect width="12.2" height="24.65" x="634.4" y="25.9" fill="#1e1e1e" shape-rendering="crispEdges"/><rect width="24.4" height="24.65" x="646.6" y="25.9" fill="#1e1e1e" shape-rendering="crispEdges"/><rect width="170.8" height="24.65" x="671" y="25.9" fill="#1e1e1e" shape-rendering="crispEdges"/><rect width="12.2" height="24.65" x="841.8" y="25.9" fill="#1e1e1e" shape-rendering="crispEdges"/><rect width="170.8" height="24.65" x="854" y="25.9" fill="#1e1e1e" shape-rendering="crispEdges"/><rect width="475.8" height="24.65" x="0" y="50.3" fill="#1e1e1e" shape-rendering="crispEdges"/><rect width="12.2" height="24.65" x="475.8" y="50.3" fill="#1e1e1e" shape-rendering="crispEdges"/><rect width="146.4" height="24.65" x="488" y="50.3" fill="#1e1e1e" shape-rendering="crispEdges"/><rect width="12.2" height="24.65" x="634.4" y="50.3" fill="#1e1e1e" shape-rendering="crispEdges"/><rect width="378.2" height="24.65" x="646.6" y="50.3" fill="#1e1e1e" shape-rendering="crispEdges"/><rect width="1024.8" height="24.65" x="0" y="74.7" fill="#1e1e1e" shape-rendering="crispEdges"/><rect width="12.2" height="24.65" x="0" y="99.1" fill="#1e1e1e" shape-rendering="crispEdges"/><rect width="12.2" height="24.65" x="12.2" y="99.1" fill="#004578" shape-rendering="crispEdges"/><rect width="976" height="24.65" x="24.4" y="99.1" fill="#24292f" shape-rendering="crispEdges"/><rect width="12.2" height="24.65" x="1000.4" y="99.1" fill="#1e1e1e" shape-rendering="crispEdges"/><rect width="12.2" height="24.65" x="1012.6" y="99.1" fill="#1e1e1e" shape-rendering="crispEdges"/><rect width="12.2" height="24.65" x="0" y="123.5" fill="#1e1e1e" shape-rendering="crispEdges"/><rect width="12.2" height="24.65" x="12.2" y="123.5" fill="#004578" shape-rendering="crispEdges"/><rect width="976" height="24.65" x="24.4" y="123.5" fill="#24292f" shape-rendering="crispEdges"/><rect width="12.2" height="24.65" x="1000.4" y="123.5" fill="#1e1e1e" shape-rendering="crispEdges"/><rect width="12.2" height="24.65" x="1012.6" y="123.5" fill="#1e1e1e" shape-rendering="crispEdges"/><rect width="12.2" height="24.65" x="0" y="147.9" fill="#1e1e1e" shape-rendering="crispEdges"/><rect width="12.2" height="24.65" x="12.2" y="147.9" fill="#004578" shape-rendering="crispEdges"/><rect width="976" height="24.65" x="24.4" y="147.9" fill="#24292f" shape-rendering="crispEdges"/><rect width="12.2" height="24.65" x="1000.4" y="147.9" fill="#1e1e1e" shape-rendering="crispEdges"/><rect width="12.2" height="24.65" x="1012.6" y="147.9" fill="#1e1e1e" shape-rendering="crispEdges"/><rect width="12.2" height="24.65" x="0" y="172.3" fill="#1e1e1e" shape-rendering="crispEdges"/><rect width="12.2" height="24.65" x="12.2" y="172.3" fill="#004578" shape-rendering="crispEdges"/><rect width="976" height="24.65" x="24.4" y="172.3" fill="#24292f" shape-rendering="crispEdges"/><rect width="12.2" height="24.65" x="1000.4" y="172.3" fill="#1e1e1e" shape-rendering="crispEdges"/><rect width="12.2" height="24.65" x="1012.6" y="172.3" fill="#1e1e1e" shape-rendering="crispEdges"/><rect width="12.2" height="24.65" x="0" y="196.7" fill="#1e1e1e" shape-rendering="crispEdges"/><rect width="12.2" height="24.65" x="12.2" y="196.7" fill="#004578" shape-rendering="crispEdges"/><rect width="976" height="24.65" x="24.4" y="196.7" fill="#24292f" shape-rendering="crispEdges"/><rect width="12.2" height="24.65" x="1000.4" y="196.7" fill="#1e1e1e" shape-rendering="crispEdges"/><rect width="12.2" height="24.65" x="1012.6" y="196.7" fill="#1e1e1e" shape-rendering="crispEdges"/><rect width="12.2" height="24.65" x="0" y="221.1" fill="#1e1e1e" shape-rendering="crispEdges"/><rect width="12.2" height="24.65" x="12.2" y="221.1" fill="#004578" shape-rendering="crispEdges"/><rect width="976" height="24.65" x="24.4" y="221.1" fill="#24292f" shape-rendering="crispEdges"/><rect width="12.2" height="24.65" x="1000.4" y="221.1" fill="#1e1e1e" shape-rendering="crispEdges"/><rect width="12.2" height="24.65" x="1012.6" y="221.1" fill="#1e1e1e" shape-rendering="crispEdges"/><rect width="12.2" height="24.65" x="0" y="245.5" fill="#1e1e1e" shape-rendering="crispEdges"/><rect width="12.2" height="24.65" x="12.2" y="245.5" fill="#004578" shape-rendering="crispEdges"/><rect width="976" height="24.65" x="24.4" y="245.5" fill="#24292f" shape-rendering="crispEdges"/><rect width="12.2" height="24.65" x="1000.4" y="245.5" fill="#1e1e1e" shape-rendering="crispEdges"/><rect width="12.2" height="24.65" x="1012.6" y="245.5" fill="#1e1e1e" shape-rendering="crispEdges"/><rect width="12.2" height="24.65" x="0" y="269.9" fill="#1e1e1e" shape-rendering="crispEdges"/><rect width="12.2" height="24.65" x="12.2" y="269.9" fill="#004578" shape-rendering="crispEdges"/><rect width="976" height="24.65" x="24.4" y="269.9" fill="#24292f" shape-rendering="crispEdges"/><rect width="12.2" height="24.65" x="1000.4" y="269.9" fill="#1e1e1e" shape-rendering="crispEdges"/><rect width="12.2" height="24.65" x="1012.6" y="269.9" fill="#1e1e1e" shape-rendering="crispEdges"/><rect width="12.2" height="24.65" x="0" y="294.3" fill="#1e1e1e" shape-rendering="crispEdges"/><rect width="12.2" height="24.65" x="12.2" y="294.3" fill="#004578" shape-rendering="crispEdges"/><rect width="976" height="24.65" x="24.4" y="294.3" fill="#24292f" shape-rendering="crispEdges"/><rect width="12.2" height="24.65" x="1000.4" y="294.3" fill="#1e1e1e" shape-rendering="crispEdges"/><rect width="12.2" height="24.65" x="1012.6" y="294.3" fill="#1e1e1e" shape-rendering="crispEdges"/><rect width="12.2" height="24.65" x="0" y="318.7" fill="#1e1e1e" shape-rendering="crispEdges"/><rect width="12.2" height="24.65" x="12.2" y="318.7" fill="#004578" shape-rendering="crispEdges"/><rect width="976" height="24.65" x="24.4" y="318.7" fill="#24292f" shape-rendering="crispEdges"/><rect width="12.2" height="24.65" x="1000.4" y="318.7" fill="#1e1e1e" shape-rendering="crispEdges"/><rect width="12.2" height="24.65" x="1012.6" y="318.7" fill="#1e1e1e" shape-rendering="crispEdges"/><rect width="12.2" height="24.65" x="0" y="343.1" fill="#1e1e1e" shape-rendering="crispEdges"/><rect width="12.2" height="24.65" x="12.2" y="343.1" fill="#004578" shape-rendering="crispEdges"/><rect width="976" height="24.65" x="24.4" y="343.1" fill="#24292f" shape-rendering="crispEdges"/><rect width="12.2" height="24.65" x="1000.4" y="343.1" fill="#1e1e1e" shape-rendering="crispEdges"/><rect width="12.2" height="24.65" x="1012.6" y="343.1" fill="#1e1e1e" shape-rendering="crispEdges"/><rect width="12.2" height="24.65" x="0" y="367.5" fill="#1e1e1e" shape-rendering="crispEdges"/><rect width="12.2" height="24.65" x="12.2" y="367.5" fill="#004578" shape-rendering="crispEdges"/><rect width="414.8" height="24.65" x="24.4" y="367.5" fill="#24292f" shape-rendering="crispEdges"/><rect width="146.4" height="24.65" x="439.2" y="367.5" fill="#24292f" shape-rendering="crispEdges"/><rect width="414.8" height="24.65" x="585.6" y="367.5" fill="#24292f" shape-rendering="crispEdges"/><rect width="12.2" height="24.65" x="1000.4" y="367.5" fill="#1e1e1e" shape-rendering="crispEdges"/><rect width="12.2" height="24.65" x="1012.6" y="367.5" fill="#1e1e1e" shape-rendering="crispEdges"/><rect width="12.2" height="24.65" x="0" y="391.9" fill="#1e1e1e" shape-rendering="crispEdges"/><rect width="12.2" height="24.65" x="12.2" y="391.9" fill="#004578" shape-rendering="crispEdges"/><rect width="976" height="24.65" x="24.4" y="391.9" fill="#24292f" shape-rendering="crispEdges"/><rect width="12.2" height="24.65" x="1000.4" y="391.9" fill="#1e1e1e" shape-rendering="crispEdges"/><rect width="12.2" height="24.65" x="1012.6" y="391.9" fill="#1e1e1e" shape-rendering="crispEdges"/><rect width="12.2" height="24.65" x="0" y="416.3" fill="#1e1e1e" shape-rendering="crispEdges"/><rect width="12.2" height="24.65" x="12.2" y="416.3" fill="#004578" shape-rendering="crispEdges"/><rect width="976" height="24.65" x="24.4" y="416.3" fill="#24292f" shape-rendering="crispEdges"/><rect width="12.2" height="24.65" x="1000.4" y="416.3" fill="#1e1e1e" shape-rendering="crispEdges"/><rect width="12.2" height="24.65" x="1012.6" y="416.3" fill="#1e1e1e" shape-rendering="crispEdges"/><rect width="12.2" height="24.65" x="0" y="440.7" fill="#1e1e1e" shape-rendering="crispEdges"/><rect width="12.2" height="24.65" x="12.2" y="440.7" fill="#004578" shape-rendering="crispEdges"/><rect width="976" height="24.65" x="24.4" y="440.7" fill="#24292f" shape-rendering="crispEdges"/><rect width="12.2" height="24.65" x="1000.4" y="440.7" fill="#1e1e1e" shape-rendering="crispEdges"/><rect width="12.2" height="24.65" x="1012.6" y="440.7" fill="#1e1e1e" shape-rendering="crispEdges"/><rect width="12.2" height="24.65" x="0" y="465.1" fill="#1e1e1e" shape-rendering="crispEdges"/><rect width="12.2" height="24.65" x="12.2" y="465.1" fill="#004578" shape-rendering="crispEdges"/><rect width="976" height="24.65" x="24.4" y="465.1" fill="#24292f" shape-rendering="crispEdges"/><rect width="12.2" height="24.65" x="1000.4" y="465.1" fill="#1e1e1e" shape-rendering="crispEdges"/><rect width="12.2" height="24.65" x="1012.6" y="465.1" fill="#1e1e1e" shape-rendering="crispEdges"/><rect width="12.2" height="24.65" x="0" y="489.5" fill="#1e1e1e" shape-rendering="crispEdges"/><rect width="12.2" height="24.65" x="12.2" y="489.5" fill="#004578" shape-rendering="crispEdges"/><rect width="976" height="24.65" x="24.4" y="489.5" fill="#24292f" shape-rendering="crispEdges"/><rect width="12.2" height="24.65" x="1000.4" y="489.5" fill="#1e1e1e" shape-rendering="crispEdges"/><rect width="12.2" height="24.65" x="1012.6" y="489.5" fill="#1e1e1e" shape-rendering="crispEdges"/><rect width="12.2" height="24.65" x="0" y="513.9" fill="#1e1e1e" shape-rendering="crispEdges"/><rect width="12.2" height="24.65" x="12.2" y="513.9" fill="#004578" shape-rendering="crispEdges"/><rect width="976" height="24.65" x="24.4" y="513.9" fill="#24292f" shape-rendering="crispEdges"/><rect width="12.2" height="24.65" x="1000.4" y="513.9" fill="#1e1e1e" shape-rendering="crispEdges"/><rect width="12.2" height="24.65" x="1012.6" y="513.9" fill="#1e1e1e" shape-rendering="crispEdges"/><rect width="12.2" height="24.65" x="0" y="538.3" fill="#1e1e1e" shape-rendering="crispEdges"/><rect width="12.2" height="24.65" x="12.2" y="538.3" fill="#004578" shape-rendering="crispEdges"/><rect width="976" height="24.65" x="24.4" y="538.3" fill="#24292f" shape-rendering="crispEdges"/><rect width="12.2" height="24.65" x="1000.4" y="538.3" fill="#1e1e1e" shape-rendering="crispEdges"/><rect width="12.2" height="24.65" x="1012.6" y="538.3" fill="#1e1e1e" shape-rendering="crispEdges"/><rect width="12.2" height="24.65" x="0" y="562.7" fill="#1e1e1e" shape-rendering="crispEdges"/><rect width="12.2" height="24.65" x="12.2" y="562.7" fill="#004578" shape-rendering="crispEdges"/><rect width="976" height="24.65" x="24.4" y="562.7" fill="#24292f" shape-rendering="crispEdges"/><rect width="12.2" height="24.65" x="1000.4" y="562.7" fill="#1e1e1e" shape-rendering="crispEdges"/><rect width="12.2" height="24.65" x="1012.6" y="562.7" fill="#1e1e1e" shape-rendering="crispEdges"/><rect width="12.2" height="24.65" x="0" y="587.1" fill="#1e1e1e" shape-rendering="crispEdges"/><rect width="12.2" height="24.65" x="12.2" y="587.1" fill="#004578" shape-rendering="crispEdges"/><rect width="976" height="24.65" x="24.4" y="587.1" fill="#24292f" shape-rendering="crispEdges"/><rect width="12.2" height="24.65" x="1000.4" y="587.1" fill="#1e1e1e" shape-rendering="crispEdges"/><rect width="12.2" height="24.65" x="1012.6" y="587.1" fill="#1e1e1e" shape-rendering="crispEdges"/><rect width="12.2" height="24.65" x="0" y="611.5" fill="#1e1e1e" shape-rendering="crispEdges"/><rect width="12.2" height="24.65" x="12.2" y="611.5" fill="#004578" shape-rendering="crispEdges"/><rect width="976" height="24.65" x="24.4" y="611.5" fill="#24292f" shape-rendering="crispEdges"/><rect width="12.2" height="24.65" x="1000.4" y="611.5" fill="#1e1e1e" shape-rendering="crispEdges"/><rect width="12.2" height="24.65" x="1012.6" y="611.5" fill="#1e1e1e" shape-rendering="crispEdges"/><rect width="12.2" height="24.65" x="0" y="635.9" fill="#1e1e1e" shape-rendering="crispEdges"/><rect width="12.2" height="24.65" x="12.2" y="635.9" fill="#004578" shape-rendering="crispEdges"/><rect width="976" height="24.65" x="24.4" y="635.9" fill="#24292f" shape-rendering="crispEdges"/><rect width="12.2" height="24.65" x="1000.4" y="635.9" fill="#1e1e1e" shape-rendering="crispEdges"/><rect width="12.2" height="24.65" x="1012.6" y="635.9" fill="#1e1e1e" shape-rendering="crispEdges"/><rect width="12.2" height="24.65" x="0" y="660.3" fill="#1e1e1e" shape-rendering="crispEdges"/><rect width="12.2" height="24.65" x="12.2" y="660.3" fill="#004578" shape-rendering="crispEdges"/><rect width="976" height="24.65" x="24.4" y="660.3" fill="#24292f" shape-rendering="crispEdges"/><rect width="12.2" height="24.65" x="1000.4" y="660.3" fill="#1e1e1e" shape-rendering="crispEdges"/><rect width="12.2" height="24.65" x="1012.6" y="660.3" fill="#1e1e1e" shape-rendering="crispEdges"/><rect width="1024.8" height="24.65" x="0" y="684.7" fill="#1e1e1e" shape-rendering="crispEdges"/><rect width="36.6" height="24.65" x="0" y="709.1" fill="#0053aa" shape-rendering="crispEdges"/><rect width="109.8" height="24.65" x="36.6" y="709.1" fill="#0178d4" shape-rendering="crispEdges"/><rect width="36.6" height="24.65" x="146.4" y="709.1" fill="#0053aa" shape-rendering="crispEdges"/><rect width="231.8" height="24.65" x="183" y="709.1" fill="#0178d4" shape-rendering="crispEdges"/><rect width="36.6" height="24.65" x="414.8" y="709.1" fill="#0053aa" shape-rendering="crispEdges"/><rect width="146.4" height="24.65" x="451.4" y="709.1" fill="#0178d4" shape-rendering="crispEdges"/><rect width="427" height="24.65" x="597.8" y="709.1" fill="#0178d4" shape-rendering="crispEdges"/><g class="terminal-1856857456-matrix"><text x="24.4" y="44.4" class="terminal-1856857456-r2" clip-path="url(#terminal-1856857456-line-1)" textLength="170.8">Paul Atreidies</text><text x="231.8" y="44.4" class="terminal-1856857456-r2" clip-path="url(#terminal-1856857456-line-1)" textLength="219.6">Duke Leto Atreides</text><text x="488" y="44.4" class="terminal-1856857456-r3" clip-path="url(#terminal-1856857456-line-1)" textLength="146.4">Lady Jessica</text><text x="671" y="44.4" class="terminal-1856857456-r2" clip-path="url(#terminal-1856857456-line-1)" textLength="170.8">Gurney Halleck</text><text x="0" y="68.8" class="terminal-1856857456-r4" clip-path="url(#terminal-1856857456-line-2)" textLength="475.8">━━━━━━━━━━━━━━━━━━━━━━━━━━━━━━━━━━━━━━━</text><text x="475.8" y="68.8" class="terminal-1856857456-r4" clip-path="url(#terminal-1856857456-line-2)" textLength="12.2">╸</text><text x="488" y="68.8" class="terminal-1856857456-r5" clip-path="url(#terminal-1856857456-line-2)" textLength="146.4">━━━━━━━━━━━━</text><text x="634.4" y="68.8" class="terminal-1856857456-r4" clip-path="url(#terminal-1856857456-line-2)" textLength="12.2">╺</text><text x="646.6" y="68.8" class="terminal-1856857456-r4" clip-path="url(#terminal-1856857456-line-2)" textLength="378.2">━━━━━━━━━━━━━━━━━━━━━━━━━━━━━━━</text><text x="12.2" y="117.6" class="terminal-1856857456-r7" clip-path="url(#terminal-1856857456-line-4)" textLength="12.2">▊</text><text x="24.4" y="117.6" class="terminal-1856857456-r8" clip-path="url(#terminal-1856857456-line-4)" textLength="976">▔▔▔▔▔▔▔▔▔▔▔▔▔▔▔▔▔▔▔▔▔▔▔▔▔▔▔▔▔▔▔▔▔▔▔▔▔▔▔▔▔▔▔▔▔▔▔▔▔▔▔▔▔▔▔▔▔▔▔▔▔▔▔▔▔▔▔▔▔▔▔▔▔▔▔▔▔▔▔▔</text><text x="1000.4" y="117.6" class="terminal-1856857456-r8" clip-path="url(#terminal-1856857456-line-4)" textLength="12.2">▎</text><text x="12.2" y="142" class="terminal-1856857456-r7" clip-path="url(#terminal-1856857456-line-5)" textLength="12.2">▊</text><text x="1000.4" y="142" class="terminal-1856857456-r8" clip-path="url(#terminal-1856857456-line-5)" textLength="12.2">▎</text><text x="12.2" y="166.4" class="terminal-1856857456-r7" clip-path="url(#terminal-1856857456-line-6)" textLength="12.2">▊</text><text x="1000.4" y="166.4" class="terminal-1856857456-r8" clip-path="url(#terminal-1856857456-line-6)" textLength="12.2">▎</text><text x="12.2" y="190.8" class="terminal-1856857456-r7" clip-path="url(#terminal-1856857456-line-7)" textLength="12.2">▊</text><text x="1000.4" y="190.8" class="terminal-1856857456-r8" clip-path="url(#terminal-1856857456-line-7)" textLength="12.2">▎</text><text x="12.2" y="215.2" class="terminal-1856857456-r7" clip-path="url(#terminal-1856857456-line-8)" textLength="12.2">▊</text><text x="1000.4" y="215.2" class="terminal-1856857456-r8" clip-path="url(#terminal-1856857456-line-8)" textLength="12.2">▎</text><text x="12.2" y="239.6" class="terminal-1856857456-r7" clip-path="url(#terminal-1856857456-line-9)" textLength="12.2">▊</text><text x="1000.4" y="239.6" class="terminal-1856857456-r8" clip-path="url(#terminal-1856857456-line-9)" textLength="12.2">▎</text><text x="12.2" y="264" class="terminal-1856857456-r7" clip-path="url(#terminal-1856857456-line-10)" textLength="12.2">▊</text><text x="1000.4" y="264" class="terminal-1856857456-r8" clip-path="url(#terminal-1856857456-line-10)" textLength="12.2">▎</text><text x="12.2" y="288.4" class="terminal-1856857456-r7" clip-path="url(#terminal-1856857456-line-11)" textLength="12.2">▊</text><text x="1000.4" y="288.4" class="terminal-1856857456-r8" clip-path="url(#terminal-1856857456-line-11)" textLength="12.2">▎</text><text x="12.2" y="312.8" class="terminal-1856857456-r7" clip-path="url(#terminal-1856857456-line-12)" textLength="12.2">▊</text><text x="1000.4" y="312.8" class="terminal-1856857456-r8" clip-path="url(#terminal-1856857456-line-12)" textLength="12.2">▎</text><text x="12.2" y="337.2" class="terminal-1856857456-r7" clip-path="url(#terminal-1856857456-line-13)" textLength="12.2">▊</text><text x="1000.4" y="337.2" class="terminal-1856857456-r8" clip-path="url(#terminal-1856857456-line-13)" textLength="12.2">▎</text><text x="12.2" y="361.6" class="terminal-1856857456-r7" clip-path="url(#terminal-1856857456-line-14)" textLength="12.2">▊</text><text x="1000.4" y="361.6" class="terminal-1856857456-r8" clip-path="url(#terminal-1856857456-line-14)" textLength="12.2">▎</text><text x="12.2" y="386" class="terminal-1856857456-r7" clip-path="url(#terminal-1856857456-line-15)" textLength="12.2">▊</text><text x="439.2" y="386" class="terminal-1856857456-r9" clip-path="url(#terminal-1856857456-line-15)" textLength="146.4">Lady Jessica</text><text x="1000.4" y="386" class="terminal-1856857456-r8" clip-path="url(#terminal-1856857456-line-15)" textLength="12.2">▎</text><text x="12.2" y="410.4" class="terminal-1856857456-r7" clip-path="url(#terminal-1856857456-line-16)" textLength="12.2">▊</text><text x="1000.4" y="410.4" class="terminal-1856857456-r8" clip-path="url(#terminal-1856857456-line-16)" textLength="12.2">▎</text><text x="12.2" y="434.8" class="terminal-1856857456-r7" clip-path="url(#terminal-1856857456-line-17)" textLength="12.2">▊</text><text x="1000.4" y="434.8" class="terminal-1856857456-r8" clip-path="url(#terminal-1856857456-line-17)" textLength="12.2">▎</text><text x="12.2" y="459.2" class="terminal-1856857456-r7" clip-path="url(#terminal-1856857456-line-18)" textLength="12.2">▊</text><text x="1000.4" y="459.2" class="terminal-1856857456-r8" clip-path="url(#terminal-1856857456-line-18)" textLength="12.2">▎</text><text x="12.2" y="483.6" class="terminal-1856857456-r7" clip-path="url(#terminal-1856857456-line-19)" textLength="12.2">▊</text><text x="1000.4" y="483.6" class="terminal-1856857456-r8" clip-path="url(#terminal-1856857456-line-19)" textLength="12.2">▎</text><text x="12.2" y="508" class="terminal-1856857456-r7" clip-path="url(#terminal-1856857456-line-20)" textLength="12.2">▊</text><text x="1000.4" y="508" class="terminal-1856857456-r8" clip-path="url(#terminal-1856857456-line-20)" textLength="12.2">▎</text><text x="12.2" y="532.4" class="terminal-1856857456-r7" clip-path="url(#terminal-1856857456-line-21)" textLength="12.2">▊</text><text x="1000.4" y="532.4" class="terminal-1856857456-r8" clip-path="url(#terminal-1856857456-line-21)" textLength="12.2">▎</text><text x="12.2" y="556.8" class="terminal-1856857456-r7" clip-path="url(#terminal-1856857456-line-22)" textLength="12.2">▊</text><text x="1000.4" y="556.8" class="terminal-1856857456-r8" clip-path="url(#terminal-1856857456-line-22)" textLength="12.2">▎</text><text x="12.2" y="581.2" class="terminal-1856857456-r7" clip-path="url(#terminal-1856857456-line-23)" textLength="12.2">▊</text><text x="1000.4" y="581.2" class="terminal-1856857456-r8" clip-path="url(#terminal-1856857456-line-23)" textLength="12.2">▎</text><text x="12.2" y="605.6" class="terminal-1856857456-r7" clip-path="url(#terminal-1856857456-line-24)" textLength="12.2">▊</text><text x="1000.4" y="605.6" class="terminal-1856857456-r8" clip-path="url(#terminal-1856857456-line-24)" textLength="12.2">▎</text><text x="12.2" y="630" class="terminal-1856857456-r7" clip-path="url(#terminal-1856857456-line-25)" textLength="12.2">▊</text><text x="1000.4" y="630" class="terminal-1856857456-r8" clip-path="url(#terminal-1856857456-line-25)" textLength="12.2">▎</text><text x="12.2" y="654.4" class="terminal-1856857456-r7" clip-path="url(#terminal-1856857456-line-26)" textLength="12.2">▊</text><text x="1000.4" y="654.4" class="terminal-1856857456-r8" clip-path="url(#terminal-1856857456-line-26)" textLength="12.2">▎</text><text x="12.2" y="678.8" class="terminal-1856857456-r7" clip-path="url(#terminal-1856857456-line-27)" textLength="12.2">▊</text><text x="24.4" y="678.8" class="terminal-1856857456-r8" clip-path="url(#terminal-1856857456-line-27)" textLength="976">▁▁▁▁▁▁▁▁▁▁▁▁▁▁▁▁▁▁▁▁▁▁▁▁▁▁▁▁▁▁▁▁▁▁▁▁▁▁▁▁▁▁▁▁▁▁▁▁▁▁▁▁▁▁▁▁▁▁▁▁▁▁▁▁▁▁▁▁▁▁▁▁▁▁▁▁▁▁▁▁</text><text x="1000.4" y="678.8" class="terminal-1856857456-r8" clip-path="url(#terminal-1856857456-line-27)" textLength="12.2">▎</text><text x="0" y="727.6" class="terminal-1856857456-r10" clip-path="url(#terminal-1856857456-line-29)" textLength="36.6">A</text><text x="36.6" y="727.6" class="terminal-1856857456-r11" clip-path="url(#terminal-1856857456-line-29)" textLength="109.8">Add tab</text><text x="146.4" y="727.6" class="terminal-1856857456-r10" clip-path="url(#terminal-1856857456-line-29)" textLength="36.6">R</text><text x="183" y="727.6" class="terminal-1856857456-r11" clip-path="url(#terminal-1856857456-line-29)" textLength="231.8">Remove active tab</text><text x="414.8" y="727.6" class="terminal-1856857456-r10" clip-path="url(#terminal-1856857456-line-29)" textLength="36.6">C</text><text x="451.4" y="727.6" class="terminal-1856857456-r11" clip-path="url(#terminal-1856857456-line-29)" textLength="146.4">Clear tabs</text></g></g></svg>