<svg xmlns="http://www.w3.org/2000/svg" class="rich-terminal" viewBox="0 0 1129 586.8"><style>@font-face{font-family:&quot;Fira Code&quot;;src:local(&quot;FiraCode-Regular&quot;),url(https://cdnjs.cloudflare.com/ajax/libs/firacode/6.2.0/woff2/FiraCode-Regular.woff2) format(&quot;woff2&quot;),url(https://cdnjs.cloudflare.com/ajax/libs/firacode/6.2.0/woff/FiraCode-Regular.woff) format(&quot;woff&quot;);font-style:normal;font-weight:400}@font-face{font-family:&quot;Fira Code&quot;;src:local(&quot;FiraCode-Bold&quot;),url(https://cdnjs.cloudflare.com/ajax/libs/firacode/6.2.0/woff2/FiraCode-Bold.woff2) format(&quot;woff2&quot;),url(https://cdnjs.cloudflare.com/ajax/libs/firacode/6.2.0/woff/FiraCode-Bold.woff) format(&quot;woff&quot;);font-style:bold;font-weight:700}.terminal-2685039627-matrix{font-family:Fira Code,monospace;font-size:20px;line-height:24.4px;font-variant-east-asian:full-width}.terminal-2685039627-title{font-size:18px;font-weight:700;font-family:arial}.terminal-2685039627-r3{fill:#4ebf71}.terminal-2685039627-r4{fill:#18954b;font-weight:700}.terminal-2685039627-r5{fill:#008139}.terminal-2685039627-r6{fill:#e2e3e3}</style><defs><clipPath id="terminal-2685039627-clip-terminal"><rect width="1109.2" height="535.8" x="0" y="0"/></clipPath><clipPath id="terminal-2685039627-line-0"><rect width="1110.2" height="24.65" x="0" y="1.5"/></clipPath><clipPath id="terminal-2685039627-line-1"><rect width="1110.2" height="24.65" x="0" y="25.9"/></clipPath><clipPath id="terminal-2685039627-line-2"><rect width="1110.2" height="24.65" x="0" y="50.3"/></clipPath><clipPath id="terminal-2685039627-line-3"><rect width="1110.2" height="24.65" x="0" y="74.7"/></clipPath><clipPath id="terminal-2685039627-line-4"><rect width="1110.2" height="24.65" x="0" y="99.1"/></clipPath><clipPath id="terminal-2685039627-line-5"><rect width="1110.2" height="24.65" x="0" y="123.5"/></clipPath><clipPath id="terminal-2685039627-line-6"><rect width="1110.2" height="24.65" x="0" y="147.9"/></clipPath><clipPath id="terminal-2685039627-line-7"><rect width="1110.2" height="24.65" x="0" y="172.3"/></clipPath><clipPath id="terminal-2685039627-line-8"><rect width="1110.2" height="24.65" x="0" y="196.7"/></clipPath><clipPath id="terminal-2685039627-line-9"><rect width="1110.2" height="24.65" x="0" y="221.1"/></clipPath><clipPath id="terminal-2685039627-line-10"><rect width="1110.2" height="24.65" x="0" y="245.5"/></clipPath><clipPath id="terminal-2685039627-line-11"><rect width="1110.2" height="24.65" x="0" y="269.9"/></clipPath><clipPath id="terminal-2685039627-line-12"><rect width="1110.2" height="24.65" x="0" y="294.3"/></clipPath><clipPath id="terminal-2685039627-line-13"><rect width="1110.2" height="24.65" x="0" y="318.7"/></clipPath><clipPath id="terminal-2685039627-line-14"><rect width="1110.2" height="24.65" x="0" y="343.1"/></clipPath><clipPath id="terminal-2685039627-line-15"><rect width="1110.2" height="24.65" x="0" y="367.5"/></clipPath><clipPath id="terminal-2685039627-line-16"><rect width="1110.2" height="24.65" x="0" y="391.9"/></clipPath><clipPath id="terminal-2685039627-line-17"><rect width="1110.2" height="24.65" x="0" y="416.3"/></clipPath><clipPath id="terminal-2685039627-line-18"><rect width="1110.2" height="24.65" x="0" y="440.7"/></clipPath><clipPath id="terminal-2685039627-line-19"><rect width="1110.2" height="24.65" x="0" y="465.1"/></clipPath><clipPath id="terminal-2685039627-line-20"><rect width="1110.2" height="24.65" x="0" y="489.5"/></clipPath></defs><rect width="1127" height="584.8" x="1" y="1" fill="#292929" stroke="rgba(255,255,255,0.35)" stroke-width="1" rx="8"/><text x="563" y="27" fill="#c5c8c6" class="terminal-2685039627-title" text-anchor="middle">TooltipApp</text><g transform="translate(26,22)"><circle cx="0" cy="0" r="7" fill="#ff5f57"/><circle cx="22" cy="0" r="7" fill="#febc2e"/><circle cx="44" cy="0" r="7" fill="#28c840"/></g><g clip-path="url(#terminal-2685039627-clip-terminal)" transform="translate(9, 41)"><rect width="1110.2" height="24.65" x="0" y="1.5" fill="#1e1e1e" shape-rendering="crispEdges"/><rect width="1110.2" height="24.65" x="0" y="25.9" fill="#1e1e1e" shape-rendering="crispEdges"/><rect width="1110.2" height="24.65" x="0" y="50.3" fill="#1e1e1e" shape-rendering="crispEdges"/><rect width="1110.2" height="24.65" x="0" y="74.7" fill="#1e1e1e" shape-rendering="crispEdges"/><rect width="1110.2" height="24.65" x="0" y="99.1" fill="#1e1e1e" shape-rendering="crispEdges"/><rect width="1110.2" height="24.65" x="0" y="123.5" fill="#1e1e1e" shape-rendering="crispEdges"/><rect width="1110.2" height="24.65" x="0" y="147.9" fill="#1e1e1e" shape-rendering="crispEdges"/><rect width="1110.2" height="24.65" x="0" y="172.3" fill="#1e1e1e" shape-rendering="crispEdges"/><rect width="1110.2" height="24.65" x="0" y="196.7" fill="#1e1e1e" shape-rendering="crispEdges"/><rect width="451.4" height="24.65" x="0" y="221.1" fill="#1e1e1e" shape-rendering="crispEdges"/><rect width="195.2" height="24.65" x="451.4" y="221.1" fill="#18954b" shape-rendering="crispEdges"/><rect width="463.6" height="24.65" x="646.6" y="221.1" fill="#1e1e1e" shape-rendering="crispEdges"/><rect width="451.4" height="24.65" x="0" y="245.5" fill="#1e1e1e" shape-rendering="crispEdges"/><rect width="36.6" height="24.65" x="451.4" y="245.5" fill="#18954b" shape-rendering="crispEdges"/><rect width="12.2" height="24.65" x="488" y="245.5" fill="#e0f1e7" shape-rendering="crispEdges"/><rect width="97.6" height="24.65" x="500.2" y="245.5" fill="#e0f1e7" shape-rendering="crispEdges"/><rect width="12.2" height="24.65" x="597.8" y="245.5" fill="#e0f1e7" shape-rendering="crispEdges"/><rect width="36.6" height="24.65" x="610" y="245.5" fill="#18954b" shape-rendering="crispEdges"/><rect width="463.6" height="24.65" x="646.6" y="245.5" fill="#1e1e1e" shape-rendering="crispEdges"/><rect width="451.4" height="24.65" x="0" y="269.9" fill="#1e1e1e" shape-rendering="crispEdges"/><rect width="195.2" height="24.65" x="451.4" y="269.9" fill="#18954b" shape-rendering="crispEdges"/><rect width="463.6" height="24.65" x="646.6" y="269.9" fill="#1e1e1e" shape-rendering="crispEdges"/><rect width="561.2" height="24.65" x="0" y="294.3" fill="#1e1e1e" shape-rendering="crispEdges"/><rect width="488" height="24.65" x="561.2" y="294.3" fill="#24292f" shape-rendering="crispEdges"/><rect width="61" height="24.65" x="1049.2" y="294.3" fill="#1e1e1e" shape-rendering="crispEdges"/><rect width="561.2" height="24.65" x="0" y="318.7" fill="#1e1e1e" shape-rendering="crispEdges"/><rect width="24.4" height="24.65" x="561.2" y="318.7" fill="#24292f" shape-rendering="crispEdges"/><rect width="195.2" height="24.65" x="585.6" y="318.7" fill="#24292f" shape-rendering="crispEdges"/><rect width="244" height="24.65" x="780.8" y="318.7" fill="#24292f" shape-rendering="crispEdges"/><rect width="24.4" height="24.65" x="1024.8" y="318.7" fill="#24292f" shape-rendering="crispEdges"/><rect width="61" height="24.65" x="1049.2" y="318.7" fill="#1e1e1e" shape-rendering="crispEdges"/><rect width="561.2" height="24.65" x="0" y="343.1" fill="#1e1e1e" shape-rendering="crispEdges"/><rect width="24.4" height="24.65" x="561.2" y="343.1" fill="#24292f" shape-rendering="crispEdges"/><rect width="292.8" height="24.65" x="585.6" y="343.1" fill="#24292f" shape-rendering="crispEdges"/><rect width="146.4" height="24.65" x="878.4" y="343.1" fill="#24292f" shape-rendering="crispEdges"/><rect width="24.4" height="24.65" x="1024.8" y="343.1" fill="#24292f" shape-rendering="crispEdges"/><rect width="61" height="24.65" x="1049.2" y="343.1" fill="#1e1e1e" shape-rendering="crispEdges"/><rect width="561.2" height="24.65" x="0" y="367.5" fill="#1e1e1e" shape-rendering="crispEdges"/><rect width="24.4" height="24.65" x="561.2" y="367.5" fill="#24292f" shape-rendering="crispEdges"/><rect width="439.2" height="24.65" x="585.6" y="367.5" fill="#24292f" shape-rendering="crispEdges"/><rect width="24.4" height="24.65" x="1024.8" y="367.5" fill="#24292f" shape-rendering="crispEdges"/><rect width="61" height="24.65" x="1049.2" y="367.5" fill="#1e1e1e" shape-rendering="crispEdges"/><rect width="561.2" height="24.65" x="0" y="391.9" fill="#1e1e1e" shape-rendering="crispEdges"/><rect width="24.4" height="24.65" x="561.2" y="391.9" fill="#24292f" shape-rendering="crispEdges"/><rect width="231.8" height="24.65" x="585.6" y="391.9" fill="#24292f" shape-rendering="crispEdges"/><rect width="207.4" height="24.65" x="817.4" y="391.9" fill="#24292f" shape-rendering="crispEdges"/><rect width="24.4" height="24.65" x="1024.8" y="391.9" fill="#24292f" shape-rendering="crispEdges"/><rect width="61" height="24.65" x="1049.2" y="391.9" fill="#1e1e1e" shape-rendering="crispEdges"/><rect width="561.2" height="24.65" x="0" y="416.3" fill="#1e1e1e" shape-rendering="crispEdges"/><rect width="24.4" height="24.65" x="561.2" y="416.3" fill="#24292f" shape-rendering="crispEdges"/><rect width="244" height="24.65" x="585.6" y="416.3" fill="#24292f" shape-rendering="crispEdges"/><rect width="195.2" height="24.65" x="829.6" y="416.3" fill="#24292f" shape-rendering="crispEdges"/><rect width="24.4" height="24.65" x="1024.8" y="416.3" fill="#24292f" shape-rendering="crispEdges"/><rect width="61" height="24.65" x="1049.2" y="416.3" fill="#1e1e1e" shape-rendering="crispEdges"/><rect width="561.2" height="24.65" x="0" y="440.7" fill="#1e1e1e" shape-rendering="crispEdges"/><rect width="488" height="24.65" x="561.2" y="440.7" fill="#24292f" shape-rendering="crispEdges"/><rect width="61" height="24.65" x="1049.2" y="440.7" fill="#1e1e1e" shape-rendering="crispEdges"/><rect width="1110.2" height="24.65" x="0" y="465.1" fill="#1e1e1e" shape-rendering="crispEdges"/><rect width="1110.2" height="24.65" x="0" y="489.5" fill="#1e1e1e" shape-rendering="crispEdges"/><rect width="1110.2" height="24.65" x="0" y="513.9" fill="#1e1e1e" shape-rendering="crispEdges"/><g class="terminal-2685039627-matrix"><text x="451.4" y="239.6" class="terminal-2685039627-r3" clip-path="url(#terminal-2685039627-line-9)" textLength="195.2">▔▔▔▔▔▔▔▔▔▔▔▔▔▔▔▔</text><text x="500.2" y="264" class="terminal-2685039627-r4" clip-path="url(#terminal-2685039627-line-10)" textLength="97.6">Click me</text><text x="451.4" y="288.4" class="terminal-2685039627-r5" clip-path="url(#terminal-2685039627-line-11)" textLength="195.2">▁▁▁▁▁▁▁▁▁▁▁▁▁▁▁▁</text><text x="585.6" y="337.2" class="terminal-2685039627-r6" clip-path="url(#terminal-2685039627-line-13)" textLength="195.2">I must not fear.</text><text x="585.6" y="361.6" class="terminal-2685039627-r6" clip-path="url(#terminal-2685039627-line-14)" textLength="292.8">Fear is the mind-killer.</text><text x="585.6" y="386" class="terminal-2685039627-r6" clip-path="url(#terminal-2685039627-line-15)" textLength="439.2">Fear is the little-death that brings</text><text x="585.6" y="410.4" class="terminal-2685039627-r6" clip-path="url(#terminal-2685039627-line-16)" textLength="231.8">total obliteration.</text><text x="585.6" y="434.8" class="terminal-2685039627-r6" clip-path="url(#terminal-2685039627-line-17)" textLength="244">I will face my fear.</text></g></g></svg>